<svg aria-hidden="true" style="position: absolute; width: 0; height: 0; overflow: hidden;" version="1.1" xmlns="http://www.w3.org/2000/svg" xmlns:xlink="http://www.w3.org/1999/xlink">
  <defs> 
    <symbol id="icon-parcel" viewBox="0 0 32 32">
      <path fill="#a98258" style="fill: var(--color1, #a98258)" d="M0 8.828v23.172h32v-23.172l-5.517-8.828h-20.966z"></path>
      <path fill="#a98258" style="fill: var(--color1, #a98258)" d="M0 8.828v23.172h32v-23.172l-5.517-8.828h-20.966z"></path>
      <path fill="#daae86" style="fill: var(--color2, #daae86)" d="M32 8.828l-5.517-8.828h-20.966l-5.517 8.828z"></path>
      <path fill="#daae86" style="fill: var(--color2, #daae86)" d="M32 8.828l-5.517-8.828h-20.966l-5.517 8.828z"></path>
      <path fill="#d8b18b" style="fill: var(--color3, #d8b18b)" d="M19.31 32v-3.31l-1.103 1.103-2.207-2.207-2.207 2.207-1.103-1.103v3.31z"></path>
      <path fill="#e8d5b2" style="fill: var(--color4, #e8d5b2)" d="M11.034 16.552h9.931v8.828h-9.931z"></path>
      <path fill="#d4c3a5" style="fill: var(--color5, #d4c3a5)" d="M16.552 22.621h-3.31c-0.305 0-0.552 0.247-0.552 0.552s0.247 0.552 0.552 0.552v0h3.31c0.305 0 0.552-0.247 0.552-0.552s-0.247-0.552-0.552-0.552v0zM18.759 22.621h-0.552c-0.305 0-0.552 0.247-0.552 0.552s0.247 0.552 0.552 0.552v0h0.552c0.305 0 0.552-0.247 0.552-0.552s-0.247-0.552-0.552-0.552v0zM15.448 19.31h3.31c0.305 0 0.552-0.247 0.552-0.552s-0.247-0.552-0.552-0.552v0h-3.31c-0.305 0-0.552 0.247-0.552 0.552s0.247 0.552 0.552 0.552v0zM18.759 20.414h-1.103c-0.305 0-0.552 0.247-0.552 0.552s0.247 0.552 0.552 0.552v0h1.103c0.305 0 0.552-0.247 0.552-0.552s-0.247-0.552-0.552-0.552v0zM13.241 21.517h1.103c0.305 0 0.552-0.247 0.552-0.552s-0.247-0.552-0.552-0.552v0h-1.103c-0.305 0-0.552 0.247-0.552 0.552s0.247 0.552 0.552 0.552v0zM13.241 19.31h0.552c0.305 0 0.552-0.247 0.552-0.552s-0.247-0.552-0.552-0.552v0h-0.552c-0.305 0-0.552 0.247-0.552 0.552s0.247 0.552 0.552 0.552v0zM15.614 20.579c-0.099 0.099-0.161 0.235-0.165 0.385l-0 0.001c0 0.149 0.055 0.287 0.166 0.386 0.1 0.098 0.235 0.16 0.385 0.166l0.001 0c0.152-0.002 0.29-0.063 0.392-0.16l-0 0c0.097-0.102 0.158-0.24 0.16-0.391v-0c-0.002-0.152-0.063-0.29-0.16-0.392l0 0c-0.103-0.095-0.24-0.153-0.392-0.153s-0.289 0.058-0.392 0.153l0-0z"></path>
      <path fill="#f4d5bd" style="fill: var(--color6, #f4d5bd)" d="M12.69 0h6.621v8.828h-6.621z"></path>
      <path fill="#d8b18b" style="fill: var(--color3, #d8b18b)" d="M12.69 8.828v3.862l1.103-1.103 2.207 2.207 2.207-2.207 1.103 1.103v-3.862z"></path>
    </symbol>
    <symbol id="icon-webpack" viewBox="0 0 32 32">
      <path fill="#fff" style="fill: var(--color7, #fff)" d="M16 0l14.141 8v16l-14.141 8-14.141-8v-16z"></path>
      <path fill="#8ed6fb" style="fill: var(--color8, #8ed6fb)" d="M27.616 23.448l-11.149 6.307v-4.912l6.947-3.821 4.203 2.427zM28.379 22.757v-13.189l-4.080 2.355v8.477l4.080 2.357zM4.339 23.448l11.149 6.307v-4.912l-6.947-3.821-4.203 2.427zM3.576 22.757v-13.189l4.080 2.355v8.477l-4.080 2.357zM4.053 8.715l11.435-6.469v4.749l-7.381 4.061-4.053-2.341zM27.901 8.715l-11.435-6.469v4.749l7.381 4.061 4.053-2.341z"></path>
      <path fill="#1c78c0" style="fill: var(--color9, #1c78c0)" d="M15.488 23.725l-6.853-3.768v-7.467l6.853 3.957v7.277zM16.467 23.725l6.853-3.768v-7.467l-6.853 3.957v7.277zM9.099 11.627l6.88-3.784 6.88 3.784-6.88 3.973-6.88-3.973z"></path>
    </symbol>
    <symbol id="icon-css" viewBox="0 0 28 32">
      <path fill="#1b73ba" style="fill: var(--color10, #1b73ba)" d="M2.301 28.69l-2.348-28.69 28.036 0.058-2.482 28.633-11.43 3.31z"></path>
      <path fill="#1c88c7" style="fill: var(--color11, #1c88c7)" d="M14.077 29.229v-26.497l11.546 0.038-2.059 23.707z"></path>
      <path fill="#fff" style="fill: var(--color7, #fff)" d="M22.755 6.119h-17.761l0.481 3.463h8.428l-8.293 3.56 0.481 3.348h12.219l-0.443 4.676-4.137 0.808-3.752-0.962-0.289-2.656h-3.444l0.462 5.523 7.389 2.059 7.081-2.251 0.904-10.795h-7.486l8.159-3.387z"></path>
    </symbol>
    <symbol id="icon-git" viewBox="0 0 32 32">
      <path fill="#de4c36" style="fill: var(--color12, #de4c36)" d="M31.396 14.574l-13.972-13.971c-0.804-0.805-2.109-0.805-2.914 0l-2.901 2.901 3.68 3.68c0.855-0.289 1.836-0.095 2.518 0.587 0.685 0.686 0.878 1.675 0.581 2.533l3.547 3.547c0.858-0.296 1.848-0.104 2.534 0.582 0.958 0.957 0.958 2.509 0 3.467s-2.51 0.958-3.469 0c-0.721-0.721-0.898-1.779-0.534-2.667l-3.308-3.308-0 8.705c0.25 0.125 0.464 0.28 0.649 0.464l-0-0c0.958 0.957 0.958 2.509 0 3.468-0.958 0.958-2.511 0.958-3.467 0-0.958-0.959-0.958-2.511 0-3.468 0.224-0.224 0.49-0.405 0.786-0.529l0.016-0.006v-8.786c-0.313-0.13-0.579-0.311-0.803-0.535l-0-0c-0.726-0.725-0.9-1.79-0.528-2.681l-3.628-3.628-9.58 9.579c-0.805 0.805-0.805 2.111 0 2.915l13.972 13.971c0.804 0.805 2.109 0.805 2.914 0l13.906-13.906c0.805-0.805 0.805-2.111 0-2.915z"></path>
    </symbol>
    <symbol id="icon-github" viewBox="0 0 32 32">
      <path d="M15.938 0.438c-8.801 0-15.938 7.136-15.938 15.938 0 7.042 4.567 13.016 10.899 15.124 0.796 0.148 1.089-0.346 1.089-0.767 0-0.38-0.015-1.636-0.022-2.967-4.434 0.964-5.37-1.881-5.37-1.881-0.725-1.842-1.77-2.332-1.77-2.332-1.446-0.989 0.109-0.969 0.109-0.969 1.601 0.113 2.443 1.642 2.443 1.642 1.421 2.437 3.728 1.732 4.638 1.325 0.143-1.030 0.556-1.733 1.012-2.131-3.54-0.403-7.261-1.77-7.261-7.877 0-1.74 0.623-3.162 1.642-4.278-0.165-0.402-0.711-2.023 0.154-4.218 0 0 1.338-0.428 4.384 1.634 1.271-0.353 2.635-0.53 3.989-0.536 1.355 0.006 2.719 0.183 3.993 0.536 3.042-2.062 4.379-1.634 4.379-1.634 0.867 2.195 0.322 3.816 0.156 4.218 1.022 1.116 1.64 2.538 1.64 4.278 0 6.122-3.729 7.47-7.277 7.864 0.572 0.495 1.081 1.465 1.081 2.951 0 2.133-0.018 3.849-0.018 4.374 0 0.424 0.287 0.921 1.095 0.765 6.329-2.11 10.89-8.082 10.89-15.122 0-8.803-7.136-15.938-15.938-15.938z"></path>
      <path d="M5.969 23.142c-0.035 0.079-0.16 0.103-0.273 0.049-0.116-0.052-0.181-0.16-0.143-0.239 0.034-0.081 0.159-0.104 0.274-0.049 0.116 0.052 0.182 0.161 0.142 0.24zM6.753 23.841c-0.076 0.070-0.225 0.038-0.325-0.074-0.104-0.111-0.124-0.26-0.047-0.331 0.078-0.070 0.223-0.038 0.327 0.074 0.104 0.112 0.125 0.26 0.045 0.331zM7.291 24.736c-0.098 0.068-0.258 0.004-0.356-0.137-0.098-0.142-0.098-0.312 0.002-0.38s0.256-0.007 0.356 0.134c0.098 0.144 0.098 0.314-0.002 0.384zM8.201 25.773c-0.087 0.096-0.273 0.070-0.41-0.061-0.139-0.128-0.178-0.311-0.090-0.407s0.276-0.069 0.413 0.061c0.138 0.128 0.181 0.312 0.088 0.407zM9.376 26.123c-0.038 0.125-0.218 0.181-0.398 0.128-0.18-0.055-0.298-0.201-0.262-0.327 0.037-0.126 0.217-0.185 0.399-0.128 0.18 0.054 0.298 0.2 0.261 0.326zM10.714 26.271c0.005 0.131-0.149 0.241-0.338 0.243-0.191 0.004-0.345-0.102-0.347-0.232 0-0.133 0.15-0.241 0.34-0.244s0.345 0.102 0.345 0.233zM12.028 26.221c0.023 0.128-0.109 0.26-0.297 0.295-0.185 0.034-0.356-0.045-0.38-0.172-0.023-0.131 0.111-0.263 0.296-0.297 0.188-0.033 0.357 0.044 0.381 0.175z"></path>
    </symbol>
    <symbol id="icon-html" viewBox="0 0 28 32">
      <path fill="#e34f26" style="fill: var(--color13, #e34f26)" d="M2.301 28.69l-2.348-28.69 28.036 0.058-2.482 28.633-11.43 3.31z"></path>
      <path fill="#ef652a" style="fill: var(--color14, #ef652a)" d="M14.077 29.229v-26.497l11.545 0.038-2.059 23.707z"></path>
      <path fill="#fff" style="fill: var(--color7, #fff)" d="M22.448 9.352l0.327-3.502h-17.761l0.981 10.737h12.257l-0.481 4.58-3.925 1.058-3.983-1.154-0.212-2.732h-3.522l0.481 5.58 7.235 2.020 7.293-2.020 0.981-10.891h-12.873l-0.366-3.675z"></path>
    </symbol>
    <symbol id="icon-javascript" viewBox="0 0 32 32">
      <path fill="#f0db4f" style="fill: var(--color15, #f0db4f)" d="M0 0h32v32h-32z"></path>
      <path fill="#323330" style="fill: var(--color16, #323330)" d="M29.381 24.368c-0.234-1.46-1.186-2.686-4.006-3.83-0.979-0.45-2.071-0.773-2.397-1.515-0.116-0.432-0.131-0.675-0.058-0.937 0.21-0.849 1.223-1.113 2.026-0.87 0.517 0.173 1.007 0.572 1.302 1.208 1.381-0.894 1.378-0.888 2.342-1.503-0.353-0.548-0.541-0.8-0.773-1.034-0.83-0.928-1.962-1.405-3.772-1.369-0.313 0.040-0.63 0.082-0.943 0.122-0.903 0.228-1.764 0.703-2.269 1.338-1.515 1.719-1.083 4.727 0.76 5.965 1.816 1.363 4.484 1.673 4.824 2.948 0.332 1.56-1.147 2.065-2.616 1.886-1.083-0.225-1.685-0.776-2.336-1.776-1.198 0.694-1.198 0.694-2.43 1.402 0.292 0.639 0.599 0.928 1.089 1.481 2.318 2.351 8.119 2.236 9.159-1.323 0.043-0.122 0.322-0.937 0.097-2.193zM17.396 14.707h-2.993c0 2.586-0.012 5.153-0.012 7.738 0 1.646 0.085 3.154-0.182 3.617-0.438 0.909-1.573 0.797-2.090 0.62-0.526-0.259-0.794-0.627-1.104-1.147-0.085-0.149-0.149-0.265-0.17-0.274-0.812 0.496-1.621 0.995-2.433 1.491 0.405 0.83 1.001 1.551 1.764 2.020 1.141 0.684 2.674 0.894 4.277 0.526 1.043-0.304 1.944-0.934 2.415-1.892 0.681-1.256 0.535-2.777 0.529-4.459 0.015-2.744 0-5.487 0-8.24z"></path>
    </symbol>
    <symbol id="icon-react" viewBox="0 0 28 32">
      <path fill="#61dafb" style="fill: var(--color17, #61dafb)" d="M28.083 16.003c0-1.86-2.33-3.623-5.902-4.717 0.824-3.641 0.458-6.537-1.156-7.464-0.372-0.218-0.807-0.321-1.282-0.321v1.276c0.263 0 0.475 0.052 0.653 0.149 0.779 0.447 1.116 2.147 0.853 4.333-0.063 0.538-0.166 1.105-0.292 1.683-1.122-0.275-2.347-0.487-3.635-0.624-0.773-1.059-1.574-2.021-2.381-2.862 1.866-1.734 3.618-2.685 4.808-2.685v-1.276c-1.574 0-3.635 1.122-5.719 3.068-2.084-1.935-4.144-3.045-5.719-3.045v1.276c1.185 0 2.942 0.944 4.808 2.667-0.801 0.841-1.603 1.797-2.364 2.856-1.294 0.137-2.519 0.349-3.641 0.63-0.132-0.572-0.229-1.128-0.298-1.66-0.269-2.187 0.063-3.887 0.836-4.339 0.172-0.103 0.395-0.149 0.658-0.149v-1.276c-0.481 0-0.916 0.103-1.294 0.321-1.609 0.927-1.969 3.818-1.139 7.447-3.561 1.099-5.879 2.856-5.879 4.711 0 1.86 2.33 3.623 5.902 4.717-0.824 3.641-0.458 6.537 1.156 7.464 0.372 0.218 0.807 0.321 1.288 0.321 1.574 0 3.635-1.122 5.719-3.068 2.084 1.935 4.144 3.045 5.719 3.045 0.481 0 0.916-0.103 1.294-0.321 1.609-0.927 1.969-3.818 1.139-7.447 3.549-1.093 5.867-2.856 5.867-4.711zM20.63 12.185c-0.212 0.738-0.475 1.5-0.773 2.261-0.235-0.458-0.481-0.916-0.75-1.374-0.263-0.458-0.544-0.904-0.824-1.339 0.813 0.12 1.597 0.269 2.347 0.452zM18.009 18.281c-0.447 0.773-0.904 1.505-1.38 2.187-0.853 0.074-1.717 0.114-2.587 0.114-0.864 0-1.729-0.040-2.576-0.109-0.475-0.681-0.939-1.408-1.385-2.175-0.435-0.75-0.83-1.511-1.191-2.278 0.355-0.767 0.756-1.534 1.185-2.284 0.447-0.773 0.904-1.505 1.38-2.187 0.853-0.074 1.717-0.114 2.587-0.114 0.864 0 1.729 0.040 2.576 0.109 0.475 0.681 0.939 1.408 1.385 2.175 0.435 0.75 0.83 1.511 1.191 2.278-0.361 0.767-0.756 1.534-1.185 2.284zM19.857 17.537c0.309 0.767 0.572 1.534 0.79 2.278-0.75 0.183-1.54 0.338-2.358 0.458 0.28-0.441 0.561-0.893 0.824-1.357 0.263-0.458 0.509-0.922 0.744-1.38zM14.053 23.645c-0.532-0.55-1.065-1.162-1.591-1.832 0.515 0.023 1.042 0.040 1.574 0.040 0.538 0 1.070-0.011 1.591-0.040-0.515 0.67-1.048 1.282-1.574 1.832zM9.794 20.273c-0.813-0.12-1.597-0.269-2.347-0.452 0.212-0.738 0.475-1.5 0.773-2.261 0.235 0.458 0.481 0.916 0.75 1.374s0.544 0.904 0.824 1.339zM14.024 8.361c0.532 0.55 1.065 1.162 1.591 1.832-0.515-0.023-1.042-0.040-1.574-0.040-0.538 0-1.070 0.011-1.591 0.040 0.515-0.67 1.048-1.282 1.574-1.832zM9.788 11.733c-0.28 0.441-0.561 0.893-0.824 1.357-0.263 0.458-0.509 0.916-0.744 1.374-0.309-0.767-0.572-1.534-0.79-2.278 0.75-0.177 1.54-0.332 2.358-0.452zM4.608 18.899c-2.026-0.864-3.337-1.998-3.337-2.896s1.311-2.038 3.337-2.896c0.492-0.212 1.030-0.401 1.586-0.578 0.326 1.122 0.756 2.29 1.288 3.486-0.527 1.191-0.95 2.353-1.271 3.469-0.567-0.177-1.105-0.372-1.603-0.584zM7.688 27.079c-0.779-0.447-1.116-2.147-0.853-4.333 0.063-0.538 0.166-1.105 0.292-1.683 1.122 0.275 2.347 0.487 3.635 0.624 0.773 1.059 1.574 2.021 2.381 2.862-1.866 1.734-3.618 2.685-4.808 2.685-0.258-0.006-0.475-0.057-0.647-0.155zM21.266 22.717c0.269 2.187-0.063 3.887-0.836 4.339-0.172 0.103-0.395 0.149-0.658 0.149-1.185 0-2.942-0.945-4.808-2.668 0.801-0.841 1.603-1.797 2.364-2.856 1.294-0.137 2.519-0.349 3.641-0.63 0.132 0.578 0.235 1.133 0.298 1.666zM23.469 18.899c-0.492 0.212-1.030 0.401-1.586 0.578-0.326-1.122-0.756-2.29-1.288-3.486 0.527-1.191 0.95-2.353 1.271-3.469 0.567 0.177 1.105 0.372 1.609 0.584 2.026 0.864 3.337 1.998 3.337 2.896-0.006 0.899-1.317 2.038-3.343 2.896z"></path>
      <path fill="#61dafb" style="fill: var(--color17, #61dafb)" d="M16.652 16.003c0 1.445-1.171 2.616-2.616 2.616s-2.616-1.171-2.616-2.616c0-1.445 1.171-2.616 2.616-2.616s2.616 1.171 2.616 2.616z"></path>
    </symbol>
    <symbol id="icon-rest-api" viewBox="0 0 32 32">
      <path fill="#01b5e6" style="fill: var(--color18, #01b5e6)" d="M20.787 11.015c-0.080-0.104-0.229-0.124-0.333-0.044l-0.292 0.221c-0.127-0.107-0.268-0.197-0.422-0.267l0.054-0.396c0.018-0.13-0.073-0.25-0.203-0.267l-0.492-0.067c-0.13-0.017-0.25 0.074-0.267 0.204l-0.050 0.362c-0.168 0.015-0.332 0.052-0.486 0.11l-0.242-0.318c-0.079-0.104-0.228-0.124-0.332-0.045l-0.395 0.3c-0.104 0.079-0.124 0.228-0.045 0.331l0.221 0.292c-0.105 0.126-0.196 0.269-0.266 0.421l-0.396-0.054c-0.13-0.017-0.249 0.073-0.267 0.203l-0.067 0.492c-0.019 0.13 0.073 0.25 0.203 0.267l0.362 0.050c0.015 0.168 0.052 0.331 0.11 0.486l-0.318 0.242c-0.104 0.079-0.124 0.228-0.045 0.332l0.3 0.395c0.079 0.104 0.228 0.124 0.332 0.045l0.292-0.221c0.126 0.105 0.269 0.196 0.421 0.266l-0.054 0.396c-0.017 0.13 0.073 0.25 0.203 0.267l0.492 0.067c0.13 0.017 0.25-0.073 0.267-0.203l0.050-0.362c0.169-0.015 0.332-0.052 0.487-0.11l0.242 0.318c0.079 0.103 0.228 0.124 0.332 0.045l0.395-0.3c0.104-0.079 0.125-0.228 0.046-0.332l-0.222-0.292c0.107-0.126 0.197-0.267 0.267-0.421l0.396 0.054c0.13 0.019 0.25-0.073 0.267-0.203l0.067-0.492c0.017-0.13-0.073-0.25-0.203-0.267l-0.362-0.050c-0.015-0.168-0.052-0.332-0.11-0.486l0.318-0.242c0.104-0.079 0.124-0.228 0.045-0.332l-0.3-0.395zM12.323 17.963v-1.91h0.984c0.183 0 0.322 0.015 0.418 0.047 0.096 0.031 0.175 0.089 0.233 0.174 0.059 0.086 0.089 0.189 0.089 0.31 0 0.105-0.023 0.198-0.068 0.274-0.045 0.078-0.108 0.14-0.186 0.188-0.050 0.030-0.119 0.056-0.207 0.075 0.071 0.024 0.122 0.046 0.153 0.071 0.022 0.016 0.053 0.050 0.094 0.101s0.068 0.091 0.082 0.119l0.287 0.552h-0.667l-0.315-0.582c-0.041-0.075-0.075-0.125-0.107-0.147-0.043-0.029-0.091-0.044-0.145-0.044h-0.052v0.773h-0.593v-0.001zM14.404 21.289h-1.102l-0.159 0.519h-0.993l1.184-3.148h1.065l1.18 3.148h-1.019l-0.156-0.519zM14.198 20.607l-0.344-1.132-0.345 1.132h0.689zM15.808 18.66h1.618c0.353 0 0.617 0.083 0.792 0.251s0.263 0.408 0.263 0.717c0 0.318-0.096 0.567-0.287 0.747s-0.484 0.269-0.876 0.269h-0.534v1.165h-0.976v-3.148zM16.784 20.005h0.24c0.189 0 0.322-0.032 0.398-0.098 0.076-0.065 0.115-0.149 0.115-0.25 0-0.098-0.034-0.183-0.1-0.251s-0.191-0.103-0.374-0.103h-0.279v0.703zM18.875 18.66h0.976v3.148h-0.976v-3.148zM12.916 16.828h0.249c0.027 0 0.079-0.009 0.156-0.027 0.039-0.008 0.072-0.028 0.096-0.060 0.025-0.032 0.037-0.069 0.037-0.111 0-0.061-0.020-0.11-0.059-0.142-0.039-0.034-0.112-0.050-0.22-0.050h-0.259v0.39zM14.314 16.053h1.58v0.407h-0.987v0.304h0.916v0.389h-0.916v0.376h1.016v0.432h-1.609v-1.909zM16.063 17.331l0.56-0.035c0.012 0.091 0.037 0.16 0.074 0.207 0.061 0.076 0.148 0.116 0.26 0.116 0.083 0 0.149-0.020 0.194-0.059s0.068-0.086 0.068-0.138c0-0.050-0.022-0.094-0.065-0.133s-0.144-0.075-0.302-0.111c-0.258-0.058-0.442-0.135-0.553-0.232s-0.167-0.219-0.167-0.368c0-0.098 0.029-0.191 0.086-0.278s0.142-0.156 0.257-0.206c0.115-0.050 0.271-0.074 0.47-0.074 0.244 0 0.429 0.045 0.558 0.137 0.127 0.091 0.204 0.235 0.228 0.434l-0.554 0.034c-0.015-0.087-0.046-0.151-0.093-0.189-0.047-0.039-0.113-0.059-0.196-0.059-0.068 0-0.12 0.015-0.155 0.044s-0.052 0.065-0.052 0.107c0 0.030 0.015 0.057 0.043 0.082 0.028 0.024 0.093 0.049 0.197 0.071 0.258 0.056 0.443 0.112 0.554 0.169s0.193 0.127 0.243 0.212c0.051 0.083 0.076 0.178 0.076 0.282 0 0.123-0.034 0.235-0.102 0.338-0.067 0.103-0.162 0.182-0.284 0.235s-0.274 0.080-0.46 0.080c-0.324 0-0.55-0.063-0.675-0.188-0.125-0.127-0.196-0.286-0.213-0.478zM17.881 16.053h1.795v0.472h-0.602v1.438h-0.59v-1.438h-0.603v-0.472zM15.895 11.519c-0.212-0.016-0.426-0.014-0.638 0.007-0.652 0.063-1.285 0.3-1.808 0.706-0.605 0.469-1.065 1.17-1.242 2.1l-0.056 0.291-0.289 0.051c-0.284 0.050-0.537 0.118-0.759 0.205-0.215 0.083-0.407 0.186-0.575 0.308-0.134 0.097-0.25 0.206-0.348 0.324-0.304 0.365-0.446 0.822-0.442 1.285 0.003 0.47 0.156 0.945 0.439 1.335 0.105 0.145 0.227 0.278 0.366 0.394 0.141 0.117 0.3 0.214 0.478 0.287 0.101 0.042 0.208 0.076 0.321 0.104v0.867c-0.232-0.042-0.444-0.104-0.644-0.186-0.263-0.109-0.495-0.249-0.7-0.42-0.194-0.162-0.365-0.346-0.509-0.546-0.385-0.532-0.594-1.183-0.598-1.831-0.005-0.655 0.199-1.307 0.639-1.835 0.142-0.171 0.31-0.329 0.502-0.468 0.223-0.162 0.479-0.299 0.769-0.411 0.199-0.078 0.412-0.142 0.637-0.194 0.255-1.012 0.797-1.791 1.495-2.332 0.653-0.506 1.439-0.801 2.248-0.879 0.425-0.041 0.855-0.022 1.277 0.057-0.009 0.038-0.017 0.076-0.022 0.116l-0.001 0.007c-0.008 0.066-0.012 0.132-0.008 0.199-0.089 0.035-0.172 0.082-0.248 0.14l-0.003 0.002c-0.112 0.085-0.207 0.193-0.278 0.318zM22.019 13.742c0.065 0.059 0.127 0.12 0.189 0.186 0.124 0.133 0.241 0.284 0.351 0.451 0.37 0.57 0.56 1.33 0.552 2.075-0.008 0.73-0.205 1.458-0.608 1.992-0.263 0.349-0.6 0.633-1.003 0.859-0.277 0.155-0.588 0.284-0.927 0.388v-0.897c0.183-0.068 0.353-0.145 0.509-0.232 0.304-0.17 0.553-0.377 0.74-0.626 0.289-0.385 0.432-0.931 0.438-1.49 0.007-0.587-0.137-1.176-0.416-1.604-0.080-0.124-0.168-0.235-0.26-0.335-0.036-0.038-0.072-0.074-0.109-0.109 0.006-0.058 0.008-0.117 0.005-0.176 0.089-0.035 0.172-0.082 0.248-0.14l0.003-0.002c0.119-0.091 0.219-0.207 0.289-0.34zM19.084 11.674c0.534 0.073 0.906 0.565 0.833 1.099s-0.565 0.908-1.098 0.835c-0.534-0.073-0.907-0.565-0.833-1.099s0.565-0.908 1.099-0.835z"></path>
    </symbol>
    <symbol id="icon-sass" viewBox="0 0 32 32">
      <path fill="#cf649a" style="fill: var(--color19, #cf649a)" d="M27.538 17.788c-1.119 0.006-2.087 0.275-2.9 0.675-0.3-0.594-0.6-1.113-0.65-1.5-0.056-0.45-0.125-0.725-0.056-1.262s0.381-1.3 0.381-1.363c-0.006-0.056-0.069-0.331-0.712-0.338s-1.2 0.125-1.262 0.294-0.188 0.556-0.269 0.956c-0.113 0.588-1.288 2.669-1.956 3.763-0.219-0.425-0.406-0.8-0.444-1.1-0.056-0.45-0.125-0.725-0.056-1.262s0.381-1.3 0.381-1.363c-0.006-0.056-0.069-0.331-0.712-0.338s-1.2 0.125-1.262 0.294-0.131 0.569-0.269 0.956c-0.131 0.387-1.694 3.863-2.1 4.769-0.206 0.462-0.387 0.831-0.519 1.081s-0.006 0.019-0.019 0.044c-0.113 0.212-0.175 0.331-0.175 0.331v0.006c-0.088 0.156-0.181 0.306-0.225 0.306-0.031 0-0.094-0.419 0.012-0.994 0.231-1.206 0.794-3.087 0.788-3.156 0-0.031 0.106-0.363-0.363-0.531-0.456-0.169-0.619 0.113-0.656 0.113s-0.069 0.1-0.069 0.1 0.506-2.119-0.969-2.119c-0.925 0-2.2 1.006-2.831 1.925-0.4 0.219-1.25 0.681-2.15 1.175-0.344 0.188-0.7 0.387-1.037 0.569l-0.069-0.075c-1.788-1.906-5.094-3.256-4.956-5.819 0.050-0.931 0.375-3.388 6.35-6.362 4.894-2.438 8.813-1.769 9.494-0.281 0.969 2.125-2.094 6.075-7.181 6.644-1.938 0.219-2.956-0.531-3.213-0.813-0.269-0.294-0.306-0.306-0.406-0.25-0.162 0.088-0.063 0.35 0 0.506 0.15 0.394 0.775 1.094 1.838 1.444 0.931 0.306 3.206 0.475 5.956-0.588 3.081-1.194 5.488-4.506 4.781-7.275-0.719-2.819-5.394-3.744-9.813-2.175-2.631 0.938-5.481 2.4-7.531 4.319-2.438 2.275-2.825 4.262-2.663 5.088 0.569 2.944 4.625 4.862 6.25 6.281-0.081 0.044-0.156 0.087-0.225 0.125-0.813 0.4-3.906 2.019-4.681 3.731-0.875 1.938 0.137 3.331 0.813 3.519 2.088 0.581 4.225-0.462 5.381-2.181 1.15-1.719 1.012-3.95 0.481-4.969l-0.019-0.038 0.637-0.375c0.413-0.244 0.819-0.469 1.175-0.663-0.2 0.544-0.344 1.188-0.419 2.125-0.088 1.1 0.363 2.525 0.956 3.087 0.262 0.244 0.575 0.25 0.769 0.25 0.688 0 1-0.569 1.344-1.25 0.425-0.831 0.8-1.794 0.8-1.794s-0.469 2.606 0.813 2.606c0.469 0 0.938-0.606 1.15-0.919v0.006s0.012-0.019 0.037-0.063c0.021-0.030 0.046-0.069 0.069-0.108l0.006-0.010v-0.012c0.188-0.325 0.606-1.069 1.231-2.3 0.806-1.587 1.581-3.575 1.581-3.575s0.075 0.488 0.306 1.288c0.137 0.475 0.437 0.994 0.669 1.5-0.188 0.262-0.3 0.413-0.3 0.413l0.006 0.006c-0.15 0.2-0.319 0.413-0.494 0.625-0.637 0.762-1.4 1.631-1.5 1.881-0.119 0.294-0.094 0.512 0.137 0.688 0.169 0.125 0.469 0.15 0.788 0.125 0.575-0.038 0.975-0.181 1.175-0.269 0.313-0.113 0.669-0.281 1.012-0.531 0.625-0.462 1.006-1.119 0.969-1.994-0.019-0.481-0.175-0.956-0.369-1.406 0.056-0.081 0.113-0.163 0.169-0.25 0.988-1.444 1.75-3.031 1.75-3.031s0.075 0.488 0.306 1.288c0.119 0.406 0.356 0.85 0.569 1.288-0.925 0.756-1.506 1.631-1.706 2.206-0.369 1.063-0.081 1.544 0.462 1.656 0.244 0.050 0.594-0.063 0.856-0.175 0.325-0.106 0.719-0.288 1.081-0.556 0.625-0.462 1.225-1.106 1.194-1.975-0.019-0.4-0.125-0.794-0.269-1.169 0.788-0.325 1.806-0.512 3.1-0.356 2.781 0.325 3.331 2.063 3.225 2.788s-0.688 1.125-0.881 1.25c-0.194 0.119-0.256 0.163-0.238 0.25 0.025 0.131 0.113 0.125 0.281 0.1 0.231-0.038 1.462-0.594 1.512-1.931 0.075-1.719-1.556-3.594-4.45-3.575zM6.088 25.019c-0.919 1.006-2.212 1.387-2.763 1.063-0.594-0.344-0.363-1.825 0.769-2.894 0.688-0.65 1.581-1.25 2.169-1.619 0.131-0.081 0.331-0.2 0.569-0.344 0.037-0.025 0.063-0.038 0.063-0.038 0.044-0.025 0.094-0.056 0.144-0.087 0.419 1.525 0.019 2.863-0.95 3.919zM12.806 20.45c-0.319 0.781-0.994 2.788-1.4 2.675-0.35-0.094-0.563-1.613-0.069-3.113 0.25-0.756 0.781-1.656 1.094-2.006 0.506-0.563 1.056-0.75 1.194-0.519 0.162 0.3-0.619 2.475-0.819 2.963zM18.35 23.1c-0.137 0.069-0.262 0.119-0.319 0.081-0.044-0.025 0.056-0.119 0.056-0.119s0.694-0.744 0.969-1.087c0.156-0.2 0.344-0.431 0.544-0.694v0.075c0 0.9-0.862 1.5-1.25 1.744zM22.625 22.125c-0.1-0.075-0.087-0.306 0.25-1.031 0.131-0.288 0.431-0.769 0.95-1.225 0.063 0.188 0.1 0.369 0.094 0.538-0.006 1.125-0.806 1.544-1.294 1.719z"></path>
    </symbol>
    <symbol id="icon-linkedin" viewBox="0 0 32 32">
      <path d="M16 0c-8.837 0-16 7.163-16 16s7.163 16 16 16 16-7.163 16-16c-0-8.837-7.164-16-16-16zM11.731 23.735h-3.513v-11.349h3.513v11.349zM9.958 10.9c-1.147 0-2.077-0.938-2.077-2.094s0.93-2.094 2.077-2.094 2.077 0.938 2.077 2.094c0 1.157-0.93 2.094-2.077 2.094zM24.896 23.735h-3.496v-5.957c0-1.634-0.621-2.546-1.913-2.546-1.406 0-2.141 0.95-2.141 2.546v5.957h-3.369v-11.349h3.369v1.529s1.014-1.875 3.42-1.875c2.407 0 4.129 1.469 4.129 4.509l-0 7.186z"></path>
    </symbol>
    <symbol id="icon-marvel" viewBox="0 0 80 32">
      <path fill="#f0141e" style="fill: var(--color1, #f0141e)" d="M0 0h80v32h-80z"></path>
      <path fill="#fff" style="fill: var(--color2, #fff)" d="M67.699 7.459v-4.9h-13.713l-2.258 16.365-2.23-16.365h-4.945l0.553 4.37c-0.57-1.12-2.594-4.37-7.050-4.37-0.030-0.002-4.951 0-4.951 0l-0.020 23.853-3.604-23.853-6.477-0.002-3.729 24.715 0.002-24.713h-6.2l-2.234 13.883-2.177-13.883h-6.201v26.869h4.884v-12.951l2.222 12.951h2.596l2.19-12.951v12.951h9.414l0.569-4.133h3.79l0.569 4.133h9.262v-8.721l1.132-0.164 2.346 8.89h4.781l-0.002-0.006h0.014l-3.078-10.418c1.559-1.149 3.32-4.061 2.852-6.848v-0.001c0.006 0.036 2.906 17.284 2.906 17.284l5.685-0.018 3.885-24.352v24.352h9.219v-4.832h-4.375v-6.161h4.375v-4.906h-4.375v-6.070h4.375zM24.914 21.035l1.342-11.488 1.39 11.488h-2.732zM39.107 15.73c-0.375 0.18-0.765 0.27-1.148 0.271v-8.642c0.006 0 0.015-0.001 0.024-0.001 0.381-0.003 3.232 0.114 3.232 4.273 0 2.176-0.97 3.548-2.109 4.099zM77.537 24.592v4.83h-8.994v-26.867h4.844v22.037h4.151z"></path>
    </symbol>
    <symbol id="icon-film" viewBox="0 0 32 32">
      <path fill="none" stroke="#000" style="stroke: var(--color1, #000)" stroke-linejoin="round" stroke-linecap="round" stroke-miterlimit="4" stroke-width="2.6667" d="M26.427 2.667h-20.853c-1.605 0-2.907 1.301-2.907 2.907v20.853c0 1.605 1.301 2.907 2.907 2.907h20.853c1.605 0 2.907-1.301 2.907-2.907v-20.853c0-1.605-1.301-2.907-2.907-2.907z"></path>
      <path fill="none" stroke="#000" style="stroke: var(--color1, #000)" stroke-linejoin="round" stroke-linecap="round" stroke-miterlimit="4" stroke-width="2.6667" d="M9.333 2.667v26.667"></path>
      <path fill="none" stroke="#000" style="stroke: var(--color1, #000)" stroke-linejoin="round" stroke-linecap="round" stroke-miterlimit="4" stroke-width="2.6667" d="M22.667 2.667v26.667"></path>
      <path fill="none" stroke="#000" style="stroke: var(--color1, #000)" stroke-linejoin="round" stroke-linecap="round" stroke-miterlimit="4" stroke-width="2.6667" d="M2.667 16h26.667"></path>
      <path fill="none" stroke="#000" style="stroke: var(--color1, #000)" stroke-linejoin="round" stroke-linecap="round" stroke-miterlimit="4" stroke-width="2.6667" d="M2.667 9.333h6.667"></path>
      <path fill="none" stroke="#000" style="stroke: var(--color1, #000)" stroke-linejoin="round" stroke-linecap="round" stroke-miterlimit="4" stroke-width="2.6667" d="M2.667 22.667h6.667"></path>
      <path fill="none" stroke="#000" style="stroke: var(--color1, #000)" stroke-linejoin="round" stroke-linecap="round" stroke-miterlimit="4" stroke-width="2.6667" d="M22.667 22.667h6.667"></path>
      <path fill="none" stroke="#000" style="stroke: var(--color1, #000)" stroke-linejoin="round" stroke-linecap="round" stroke-miterlimit="4" stroke-width="2.6667" d="M22.667 9.333h6.667"></path>
    </symbol>
    <symbol id="icon-ice-cream" viewBox="0 0 30 32">
      <path fill="#f8d24e" style="fill: var(--color1, #f8d24e)" d="M15.226 17.082c1.415-3.784-1.515-5.856-3.457-7.217-0.371-0.278-0.743-0.538-1.043-0.776-0.537-0.447-0.933-1.037-1.141-1.699s-0.217-1.37-0.029-2.037c0.019-0.070 0.019-0.144-0.001-0.213s-0.060-0.132-0.114-0.181c-0.054-0.049-0.121-0.083-0.193-0.097s-0.147-0.009-0.216 0.016c-0.654 0.255-1.262 0.612-1.801 1.058-0.518 0.393-0.937 0.898-1.226 1.476s-0.44 1.213-0.441 1.858c-0.366 0.285-0.69 0.618-0.962 0.992-0.499 0.672-0.75 1.492-0.709 2.324-0.595 0.538-1.038 1.22-1.286 1.977s-0.292 1.566-0.129 2.345c-0.237 0.141-0.42 0.355-0.521 0.608s-0.116 0.533-0.041 0.795c0.075 0.262 0.235 0.493 0.456 0.657s0.49 0.251 0.767 0.25h0.026v2.152c0 0.218 0.088 0.428 0.245 0.582s0.369 0.241 0.591 0.241h0.65l1.058 9.040c0.022 0.201 0.119 0.387 0.272 0.523s0.351 0.21 0.556 0.209h4.404c0.206-0 0.404-0.075 0.557-0.21s0.251-0.321 0.275-0.522l1.058-9.040h0.65c0.222 0 0.434-0.087 0.591-0.241s0.245-0.364 0.245-0.582v-2.152h0.026c0.336 0 0.658-0.131 0.895-0.366s0.371-0.551 0.371-0.883c0.002-0.165-0.030-0.329-0.094-0.482s-0.158-0.291-0.277-0.408l-0.011 0.004zM5.695 10.216c0.535 1.98 2.599 2.76 4.482 3.455 0.051 0.031 0.107 0.050 0.166 0.057s0.119 0 0.175-0.018c0.056-0.019 0.108-0.049 0.151-0.090s0.076-0.090 0.098-0.145c0.021-0.055 0.030-0.113 0.026-0.172s-0.021-0.115-0.050-0.166c-0.029-0.051-0.069-0.095-0.117-0.129s-0.104-0.057-0.162-0.068c-2.027-0.758-3.939-1.464-4.084-3.488-0.034-0.556 0.072-1.112 0.308-1.619s0.596-0.947 1.047-1.284c0.282-0.232 0.586-0.437 0.906-0.615-0.021 0.253-0.021 0.508 0 0.761 0.043 0.58 0.204 1.146 0.473 1.663s0.641 0.976 1.094 1.349c0.308 0.26 0.691 0.527 1.114 0.813 0.976 0.692 2.087 1.464 2.792 2.511 0.376 0.537 0.611 1.158 0.681 1.807s-0.024 1.305-0.277 1.908h-1.641c-3.383 0-7.27-0.922-8.039-3.506-0.152-0.532-0.151-1.095 0.004-1.626s0.457-1.009 0.873-1.379l-0.019-0.018zM8.74 22.693l1.24 1.222-1.24 1.222-1.24-1.23 1.24-1.215zM11.584 25.903l-1.025 1.010-1.24-1.222 1.24-1.219 1.077 1.058-0.052 0.373zM8.74 28.706l-1.24-1.222 1.24-1.222 1.24 1.222-1.24 1.222zM8.172 25.698l-1.24 1.222-1.032-1.017-0.045-0.366 1.077-1.058 1.24 1.219zM6.36 27.484l-0.249 0.245-0.063-0.556 0.312 0.311zM6.23 28.735l0.702-0.692 1.363 1.354c0.007 0.027 0.016 0.054 0.026 0.081h-2.005l-0.085-0.743zM10.552 28.044l0.702 0.692-0.085 0.732h-2.061l1.444-1.424zM11.369 27.729l-0.249-0.245 0.316-0.311-0.067 0.556zM11.74 24.53l-0.62-0.622 0.787-0.776-0.167 1.398zM10.548 23.352l-1.177-1.157h2.354l-1.177 1.157zM6.928 23.352l-1.177-1.157h2.354l-1.177 1.157zM10.938 31.169h-4.4c-0.007-0.001-0.013-0.004-0.018-0.008s-0.008-0.011-0.008-0.017l-0.104-0.878h4.663l-0.1 0.878c-0.001 0.007-0.004 0.014-0.010 0.018s-0.012 0.007-0.020 0.007h-0.004zM14.343 18.418h-1.292c-0.056-0.005-0.113 0.001-0.166 0.019s-0.103 0.046-0.145 0.083c-0.042 0.037-0.075 0.083-0.098 0.134s-0.035 0.106-0.035 0.161c0 0.056 0.012 0.111 0.035 0.161s0.056 0.096 0.098 0.134c0.042 0.037 0.091 0.066 0.145 0.083s0.11 0.024 0.166 0.019h0.46v2.152c-0.001 0.007-0.004 0.014-0.010 0.018s-0.012 0.007-0.020 0.007h-9.494c-0.007 0-0.014-0.003-0.020-0.007s-0.009-0.011-0.010-0.018v-2.152h7.355c0.1-0.009 0.193-0.055 0.261-0.129s0.105-0.169 0.105-0.268-0.037-0.195-0.105-0.268c-0.068-0.073-0.161-0.119-0.261-0.129h-8.168c-0.064 0.006-0.128-0.002-0.188-0.022s-0.116-0.053-0.163-0.095c-0.047-0.043-0.085-0.094-0.111-0.152s-0.039-0.12-0.039-0.183c0-0.063 0.013-0.125 0.039-0.183s0.063-0.109 0.111-0.152c0.047-0.043 0.103-0.075 0.163-0.095s0.125-0.028 0.188-0.022h0.843c0.1-0.009 0.193-0.055 0.261-0.129s0.105-0.169 0.105-0.268-0.037-0.195-0.105-0.268c-0.068-0.073-0.161-0.119-0.261-0.129h-0.743c-0.106-0.557-0.089-1.13 0.051-1.68s0.399-1.063 0.759-1.505c0.26 0.798 0.928 1.889 2.599 2.756 1.571 0.809 3.65 1.222 6.178 1.222h1.485c0.064-0.006 0.128 0.002 0.188 0.022s0.116 0.053 0.163 0.095c0.047 0.043 0.085 0.094 0.111 0.152s0.039 0.12 0.039 0.183c0 0.063-0.013 0.125-0.039 0.183s-0.063 0.109-0.111 0.152c-0.047 0.043-0.103 0.075-0.163 0.095s-0.125 0.028-0.188 0.022h0.026z"></path>
      <path fill="#f8d24e" style="fill: var(--color1, #f8d24e)" d="M16.964 29.152l-0.292 0.449 0.006 0.004 0.287-0.453zM20.113 29.303l0.535-0.012-0.014-0.62-0.611 0.104 0.090 0.528zM20.15 30.951l0.136 0.518 0.409-0.108-0.009-0.422-0.535 0.012zM16.017 31.030l0.12-0.522-0.003-0.001-0.117 0.523zM13.977 30.119l0.347-0.408-0.001-0.001-0.346 0.409zM13.24 28.446l0.536 0.003v-0.003h-0.536zM13.496 27.274l-0.481-0.236-0 0.001 0.481 0.236zM15.139 25.872l0.19 0.501 0.002-0.001-0.192-0.5zM20.401 25.736l0.534 0.042 0.035-0.452-0.44-0.109-0.129 0.52zM20.27 27.415l-0.1 0.526 0.587 0.111 0.046-0.596-0.534-0.042zM18.842 26.728c-0.804 0-1.48 0.086-1.973 0.303-0.253 0.111-0.483 0.268-0.651 0.489-0.173 0.228-0.255 0.494-0.255 0.774h1.071c0-0.063 0.015-0.098 0.038-0.127 0.028-0.037 0.090-0.095 0.228-0.155 0.288-0.126 0.784-0.212 1.542-0.212v-1.071zM15.963 28.294c0 0.551 0.247 1.006 0.709 1.307l0.585-0.897c-0.159-0.104-0.222-0.221-0.222-0.409h-1.071zM16.678 29.604c0.438 0.277 1.015 0.381 1.662 0.381v-1.071c-0.559 0-0.899-0.095-1.089-0.215l-0.573 0.905zM18.34 29.986c0.636 0 1.257-0.051 1.863-0.154l-0.179-1.056c-0.545 0.092-1.106 0.139-1.684 0.139v1.071zM19.578 29.315l0.037 1.648 1.071-0.024-0.037-1.648-1.071 0.024zM20.013 30.433c-0.612 0.161-1.288 0.244-2.029 0.244v1.071c0.821 0 1.589-0.092 2.302-0.279l-0.273-1.036zM17.984 30.677c-0.757 0-1.369-0.059-1.847-0.169l-0.24 1.044c0.582 0.134 1.281 0.197 2.087 0.197v-1.071zM16.134 30.507c-0.511-0.114-0.88-0.236-1.127-0.356l-0.47 0.963c0.354 0.173 0.814 0.316 1.363 0.439l0.234-1.045zM15.008 30.151c-0.264-0.129-0.491-0.276-0.684-0.44l-0.693 0.817c0.267 0.227 0.571 0.421 0.907 0.585l0.47-0.963zM14.323 29.71c-0.364-0.308-0.55-0.709-0.548-1.262l-1.071-0.005c-0.004 0.842 0.301 1.556 0.927 2.086l0.691-0.818zM13.776 28.446c0-0.36 0.071-0.669 0.202-0.936l-0.962-0.471c-0.211 0.43-0.311 0.903-0.311 1.407h1.071zM13.977 27.51c0.244-0.495 0.674-0.88 1.352-1.137l-0.38-1.002c-0.884 0.336-1.549 0.885-1.933 1.666l0.961 0.473zM15.331 26.372c0.713-0.274 1.508-0.414 2.392-0.414v-1.071c-0.999 0-1.926 0.159-2.776 0.485l0.384 1zM17.723 25.958c0.902 0 1.751 0.1 2.549 0.298l0.258-1.040c-0.889-0.221-1.826-0.33-2.807-0.33v1.071zM19.867 25.695l-0.131 1.679 1.068 0.083 0.131-1.679-1.068-0.083zM20.37 26.889c-0.557-0.106-1.068-0.161-1.528-0.161v1.071c0.377 0 0.818 0.046 1.328 0.142l0.2-1.052zM25.596 27.745l-0.003 0.536 0.544 0.003-0.006-0.544-0.536 0.006zM25.366 27.049l-0.364 0.393 0.005 0.004 0.36-0.397zM24.032 27.101l0.371 0.386 0.004-0.004-0.375-0.383zM23.708 27.734l-0.529-0.087-0.102 0.619 0.627 0.003 0.003-0.536zM27.646 30.59l0.324 0.427 0.193-0.146 0.018-0.241-0.534-0.040zM26.49 31.019l-0.115-0.523-0.003 0.001 0.118 0.522zM22.473 30.873l-0.183 0.504 0.004 0.002 0.178-0.505zM21.558 30.386l-0.332 0.42 0.003 0.003 0.003 0.003 0.326-0.425zM20.946 29.617l-0.48 0.237 0.001 0.002 0.479-0.24zM21.573 26.369l0.356 0.4 0-0-0.356-0.4zM26.469 25.788l0.214-0.491-0.005-0.002-0.209 0.493zM27.699 26.918l-0.482 0.234 0.001 0.003 0.48-0.237zM27.908 27.855l0.534 0.039 0.001-0.019v-0.019h-0.536zM27.845 28.718l-0.003 0.536 0.501 0.002 0.036-0.499-0.534-0.039zM23.603 28.697l0.003-0.536-0.699-0.003 0.178 0.676 0.518-0.137zM24.21 29.445l-0.264 0.466 0.002 0.001 0.261-0.468zM27.463 29.262v-0.536h-0.107l-0.099 0.041 0.206 0.494zM27.746 29.262l0.534 0.040 0.043-0.576h-0.577v0.536zM26.131 27.739c-0.004-0.387-0.093-0.803-0.406-1.087l-0.72 0.794c-0.006-0.006 0.006 0.001 0.021 0.047 0.016 0.049 0.032 0.131 0.033 0.257l1.071-0.011zM25.73 26.657c-0.281-0.261-0.65-0.347-1.013-0.347v1.071c0.209 0 0.272 0.050 0.284 0.061l0.729-0.785zM24.717 26.309c-0.399 0-0.77 0.125-1.060 0.409l0.75 0.765c0.058-0.057 0.144-0.103 0.31-0.103v-1.071zM23.661 26.715c-0.264 0.253-0.423 0.572-0.482 0.932l1.057 0.174c0.024-0.149 0.082-0.252 0.167-0.333l-0.742-0.773zM23.705 28.27l1.888 0.011 0.006-1.071-1.888-0.011-0.006 1.071zM27.323 30.163c-0.117 0.089-0.404 0.213-0.948 0.333l0.23 1.046c0.565-0.124 1.049-0.286 1.364-0.525l-0.647-0.854zM26.372 30.497c-0.519 0.117-1.018 0.175-1.498 0.175v1.071c0.566 0 1.145-0.068 1.735-0.201l-0.237-1.045zM24.874 30.672c-0.505 0-0.92-0.024-1.252-0.068l-0.143 1.062c0.394 0.053 0.86 0.078 1.395 0.078v-1.071zM23.622 30.603c-0.325-0.044-0.649-0.122-0.971-0.236l-0.357 1.010c0.389 0.137 0.784 0.233 1.184 0.287l0.143-1.062zM22.656 30.369c-0.313-0.114-0.568-0.251-0.772-0.408l-0.652 0.85c0.305 0.234 0.66 0.421 1.059 0.565l0.365-1.007zM21.89 29.966c-0.184-0.146-0.34-0.338-0.465-0.588l-0.958 0.479c0.189 0.377 0.44 0.697 0.759 0.949l0.665-0.84zM21.426 29.38c-0.113-0.228-0.18-0.521-0.18-0.898h-1.071c0 0.502 0.090 0.966 0.291 1.372l0.96-0.475zM21.246 28.482c0-0.377 0.068-0.71 0.196-1.006l-0.983-0.427c-0.192 0.443-0.285 0.923-0.285 1.432h1.071zM21.442 27.477c0.135-0.311 0.3-0.541 0.487-0.708l-0.712-0.8c-0.322 0.287-0.572 0.653-0.758 1.081l0.983 0.427zM21.93 26.769c0.576-0.513 1.454-0.811 2.719-0.811v-1.071c-1.42 0-2.592 0.334-3.432 1.083l0.713 0.8zM24.649 25.958c0.568 0 1.103 0.108 1.611 0.324l0.418-0.986c-0.643-0.273-1.321-0.409-2.029-0.409v1.071zM26.255 26.279c0.474 0.207 0.78 0.5 0.962 0.873l0.963-0.468c-0.307-0.631-0.82-1.091-1.497-1.387l-0.428 0.982zM27.218 27.155c0.1 0.203 0.154 0.433 0.154 0.699h1.071c0-0.417-0.086-0.811-0.265-1.173l-0.96 0.474zM27.374 27.816l-0.063 0.863 1.068 0.078 0.063-0.863-1.068-0.078zM27.848 28.182l-4.242-0.021-0.005 1.071 4.242 0.021 0.005-1.071zM23.085 28.833c0.125 0.475 0.431 0.835 0.861 1.078l0.527-0.933c-0.212-0.12-0.31-0.258-0.352-0.418l-1.036 0.273zM23.948 29.912c0.434 0.243 0.978 0.34 1.585 0.34v-1.071c-0.509 0-0.848-0.084-1.062-0.204l-0.523 0.935zM25.533 30.252c0.651 0 1.367-0.176 2.136-0.496l-0.412-0.989c-0.689 0.287-1.26 0.414-1.724 0.414v1.071zM27.463 29.797h0.282v-1.071h-0.282v1.071zM27.212 29.222l-0.099 1.329 1.068 0.080 0.099-1.329-1.068-0.080z"></path>
    </symbol>
  </defs>
</svg>
