<svg width="112" height="112" viewBox="0 0 112 112" fill="none" xmlns="http://www.w3.org/2000/svg">
<g clip-path="url(#clip0_2_57)">
<path d="M109.888 51.0101L60.9875 2.11251C58.1731 -0.703681 53.6056 -0.703681 50.7876 2.11251L40.6333 12.2669L53.5146 25.1482C56.5079 24.1367 59.9406 24.8153 62.3267 27.2014C64.7242 29.6028 65.3979 33.0648 64.3619 36.0678L76.776 48.4823C79.7794 47.4476 83.2449 48.1169 85.6437 50.5197C88.9963 53.8709 88.9963 59.3025 85.6437 62.6559C82.2903 66.0098 76.8587 66.0098 73.5035 62.6559C70.9818 60.1316 70.3587 56.4281 71.6354 53.3214L60.0583 41.7443L60.0569 72.2105C60.8962 72.6255 61.6627 73.1736 62.3267 73.8336C65.6793 77.1849 65.6793 82.6169 62.3267 85.973C58.9732 89.3251 53.5391 89.3251 50.1904 85.973C46.8379 82.6169 46.8379 77.1853 50.1904 73.8341C50.9939 73.0303 51.9487 72.3937 52.9996 71.9611V41.211C51.9471 40.7814 50.9918 40.1444 50.1904 39.3381C47.6503 36.8014 47.0396 33.0744 48.3411 29.9554L35.6431 17.2561L2.11312 50.7839C-0.704375 53.6028 -0.704375 58.1707 2.11312 60.9873L51.0142 109.886C53.8296 112.702 58.3962 112.702 61.215 109.886L109.887 61.2144C112.704 58.3969 112.704 53.8263 109.888 51.0101Z" fill="#DE4C36"/>
</g>
<defs>
<clipPath id="clip0_2_57">
<rect width="112" height="112" fill="white"/>
</clipPath>
</defs>
</svg>
