<svg width="112" height="110" viewBox="0 0 112 110" fill="none" xmlns="http://www.w3.org/2000/svg">
<g clip-path="url(#clip0_2_63)">
<path d="M55.7834 0.5C24.9791 0.5 0 25.4853 0 56.3072C0 80.9647 15.9836 101.883 38.1482 109.263C40.936 109.779 41.9597 108.052 41.9597 106.578C41.9597 105.248 41.9077 100.851 41.8841 96.1879C26.3646 99.5637 23.0899 89.6033 23.0899 89.6033C20.5524 83.1527 16.8962 81.4378 16.8962 81.4378C11.8352 77.974 17.2778 78.0449 17.2778 78.0449C22.8795 78.4388 25.8291 83.7961 25.8291 83.7961C30.8044 92.3279 38.8789 89.8611 42.0621 88.4356C42.5626 84.8281 44.0086 82.3666 45.6037 80.973C33.2137 79.5615 20.1884 74.7762 20.1884 53.3926C20.1884 47.3 22.3676 42.3214 25.9363 38.4133C25.3571 37.0074 23.4478 31.3315 26.4766 23.6444C26.4766 23.6444 31.1609 22.1445 41.8211 29.365C46.2704 28.1281 51.0427 27.5083 55.7834 27.4873C60.5242 27.5083 65.2999 28.1281 69.7581 29.365C80.4055 22.1445 85.0832 23.6444 85.0832 23.6444C88.1195 31.3315 86.2094 37.0074 85.6301 38.4133C89.2067 42.3214 91.371 47.2996 91.371 53.3926C91.371 74.827 78.3213 79.547 65.8997 80.9284C67.9004 82.6603 69.6832 86.0567 69.6832 91.263C69.6832 98.7299 69.6185 104.74 69.6185 106.578C69.6185 108.063 70.6226 109.803 73.4506 109.255C95.6029 101.868 111.566 80.9564 111.566 56.3072C111.566 25.4853 86.5909 0.5 55.7834 0.5Z" fill="white"/>
<path d="M20.8928 79.9987C20.7703 80.2758 20.3337 80.3589 19.9369 80.169C19.5322 79.9869 19.3047 79.6087 19.4359 79.3304C19.5562 79.045 19.9929 78.9653 20.3967 79.157C20.8022 79.3387 21.0332 79.7203 20.8928 79.9987ZM23.6368 82.448C23.3708 82.6949 22.8506 82.5802 22.4975 82.1902C22.1327 81.8011 22.0644 81.2811 22.3344 81.0303C22.6087 80.7839 23.1131 80.899 23.4789 81.2886C23.8437 81.682 23.9146 82.199 23.6364 82.4484M25.5194 85.5818C25.1772 85.8195 24.6181 85.5967 24.2729 85.1004C23.9312 84.6045 23.9312 84.0092 24.2804 83.7707C24.6269 83.5322 25.1772 83.7466 25.5272 84.239C25.8685 84.7437 25.8685 85.3389 25.5189 85.5823M28.7026 89.2116C28.3968 89.5486 27.7458 89.4584 27.2689 88.998C26.7815 88.548 26.6455 87.9095 26.9522 87.572C27.2615 87.2341 27.9164 87.3291 28.3968 87.7856C28.8811 88.2347 29.0285 88.8781 28.7026 89.2116ZM32.8169 90.4371C32.6825 90.8739 32.0552 91.0726 31.4234 90.887C30.7925 90.6958 30.3795 90.1837 30.5069 89.742C30.6381 89.3022 31.2681 89.0951 31.9047 89.2939C32.5347 89.4843 32.9481 89.9924 32.8169 90.4371ZM37.4999 90.9566C37.5156 91.4171 36.9797 91.7987 36.3164 91.8071C35.6492 91.8215 35.1098 91.449 35.1028 90.9965C35.1028 90.5316 35.6265 90.1535 36.2932 90.1425C36.9565 90.1294 37.4999 90.4992 37.4999 90.9566ZM42.0997 90.7802C42.1794 91.2293 41.7182 91.6906 41.0598 91.8132C40.4123 91.9314 39.8129 91.6543 39.7302 91.2092C39.6497 90.7487 40.1196 90.2878 40.7658 90.1684C41.4255 90.0537 42.0157 90.3237 42.0997 90.7802Z" fill="white"/>
</g>
<defs>
<clipPath id="clip0_2_63">
<rect width="112" height="109" fill="white" transform="translate(0 0.5)"/>
</clipPath>
</defs>
</svg>
