<svg width="79" height="86" viewBox="0 0 79 86" fill="none" xmlns="http://www.w3.org/2000/svg">
<path d="M40.7225 45.9086C44.506 35.7381 36.671 30.1709 31.4775 26.5119C30.4845 25.7644 29.4915 25.066 28.6871 24.4267C27.2496 23.2252 26.1906 21.6401 25.6362 19.8597C25.0816 18.0795 25.0548 16.1789 25.5591 14.384C25.6109 14.1963 25.6096 13.998 25.5553 13.8109C25.5011 13.6238 25.396 13.455 25.2516 13.3231C25.107 13.1911 24.9287 13.101 24.7361 13.0626C24.5433 13.0242 24.3437 13.039 24.159 13.1054C22.4099 13.7908 20.7837 14.7507 19.3427 15.948C17.9583 17.0053 16.8366 18.3627 16.0637 19.9158C15.2908 21.4691 14.8873 23.1769 14.8841 24.9086C13.9048 25.6733 13.0391 26.5706 12.3122 27.5742C10.9768 29.3798 10.3073 31.5844 10.4155 33.82C8.82488 35.2672 7.64022 37.0981 6.97712 39.134C6.31402 41.17 6.19512 43.3414 6.63207 45.4364C5.99928 45.8152 5.50948 46.3891 5.23788 47.0703C4.96627 47.7514 4.92787 48.502 5.1286 49.2068C5.32932 49.9116 5.75808 50.5316 6.349 50.9717C6.93991 51.4118 7.66034 51.6476 8.39966 51.6429H8.46916V57.4265C8.46916 58.0134 8.70456 58.5764 9.12357 58.9914C9.54258 59.4065 10.1109 59.6396 10.7035 59.6396H12.4413L15.2714 83.9346C15.3302 84.4755 15.5889 84.9756 15.9978 85.3388C16.4066 85.702 16.9367 85.9026 17.4859 85.9018H29.263C29.8128 85.9006 30.3428 85.6997 30.7529 85.3371C31.1629 84.9744 31.4242 84.4755 31.4874 83.9346L34.3176 59.6396H36.0553C36.648 59.6396 37.2162 59.4065 37.6352 58.9914C38.0543 58.5764 38.2897 58.0134 38.2897 57.4265V51.6429H38.3592C39.2572 51.6429 40.1186 51.2895 40.7536 50.6606C41.3886 50.0316 41.7453 49.1784 41.7453 48.2888C41.7499 47.8449 41.6643 47.4046 41.4937 46.9939C41.3232 46.5834 41.071 46.2109 40.7523 45.8987L40.7225 45.9086ZM15.2317 27.4562C16.6616 32.7775 22.1828 34.8725 27.2175 36.7414C27.3528 36.8239 27.5049 36.8758 27.6628 36.8937C27.8208 36.9114 27.9806 36.8945 28.1312 36.8441C28.2817 36.7937 28.4193 36.7111 28.534 36.6021C28.6487 36.4932 28.7378 36.3605 28.795 36.2135C28.852 36.0666 28.8758 35.909 28.8645 35.752C28.8532 35.5949 28.8071 35.4424 28.7294 35.3049C28.6518 35.1676 28.5447 35.0488 28.4155 34.957C28.2863 34.8653 28.1383 34.8028 27.9821 34.7741C22.5602 32.7382 17.4461 30.8398 17.0589 25.4004C16.968 23.9052 17.2514 22.411 17.8838 21.0502C18.516 19.6896 19.4777 18.5046 20.6834 17.6004C21.4388 16.9779 22.2497 16.4249 23.1063 15.948C23.0511 16.6289 23.0511 17.3131 23.1063 17.9939C23.2213 19.5525 23.6514 21.0725 24.3714 22.4631C25.0913 23.8538 26.0862 25.0868 27.2969 26.0889C28.1211 26.7874 29.1439 27.5054 30.276 28.2725C32.8876 30.1316 35.8568 32.2069 37.7434 35.0201C38.7502 36.4628 39.3765 38.1319 39.5656 39.8756C39.7546 41.6193 39.5003 43.3822 38.8259 45.0036H38.4089H34.4368C25.3903 45.0036 14.9933 42.525 12.9378 35.5807C12.53 34.1521 12.5333 32.6391 12.9474 31.2121C13.3615 29.7853 14.1698 28.5014 15.2814 27.5054L15.2317 27.4562ZM23.3744 60.9872L26.6912 64.2724L23.3744 67.5577L20.0577 64.2528L23.3744 60.9872ZM30.981 69.6134L28.2403 72.3282L24.9236 69.0429L28.2403 65.7674L31.1201 68.6101L30.981 69.6134ZM23.3744 77.1478L20.0577 73.8626L23.3744 70.5772L26.6912 73.8626L23.3744 77.1478ZM21.8551 69.0626L18.5384 72.3478L15.7777 69.6134L15.6586 68.6298L18.5384 65.7872L21.8551 69.0626ZM17.0092 73.8626L16.3438 74.5216L16.175 73.0265L17.0092 73.8626ZM16.6616 77.2265L18.5384 75.3674L22.1828 79.0068C22.2015 79.0802 22.2247 79.1525 22.2523 79.2231H16.8899L16.6616 77.2265ZM28.2204 75.3674L30.0973 77.2265L29.8688 79.1936H24.3575L28.2204 75.3674ZM30.405 74.5216L29.7397 73.8626L30.5838 73.0265L30.405 74.5216ZM31.398 65.9249L29.7397 64.2528L31.8449 62.1675L31.398 65.9249ZM28.2105 62.7577L25.0626 59.6495H31.3584L28.2105 62.7577ZM18.5285 62.7577L15.3806 59.6495H21.6764L18.5285 62.7577ZM29.2532 83.7674H17.4859C17.4681 83.7654 17.4516 83.7575 17.439 83.7449C17.4265 83.7325 17.4184 83.716 17.4163 83.6986L17.1383 81.3379H29.6106L29.3426 83.6986C29.3401 83.7176 29.3306 83.7352 29.316 83.7479C29.3014 83.7606 29.2825 83.7675 29.263 83.7674H29.2532ZM38.3592 49.4986H34.9035C34.7533 49.4843 34.6017 49.5014 34.4585 49.5485C34.3154 49.5956 34.1837 49.6718 34.072 49.7724C33.9604 49.8728 33.8711 49.9953 33.8102 50.132C33.7491 50.2687 33.7175 50.4164 33.7175 50.566C33.7175 50.7153 33.7491 50.8631 33.8102 50.9998C33.8711 51.1365 33.9604 51.259 34.072 51.3594C34.1837 51.46 34.3154 51.5362 34.4585 51.5833C34.6017 51.6305 34.7533 51.6474 34.9035 51.6332H36.1347V57.4167C36.1324 57.4358 36.123 57.4534 36.1083 57.4661C36.0936 57.4788 36.0748 57.4856 36.0553 57.4855H10.6637C10.6443 57.4856 10.6254 57.4788 10.6108 57.4661C10.5962 57.4534 10.5867 57.4358 10.5843 57.4167V51.6332H30.2561C30.524 51.6076 30.7727 51.4842 30.9536 51.2868C31.1347 51.0895 31.2349 50.8326 31.2349 50.566C31.2349 50.2994 31.1347 50.0423 30.9536 49.845C30.7727 49.6476 30.524 49.5242 30.2561 49.4986H8.40959C8.23926 49.5138 8.06761 49.4937 7.90557 49.4396C7.74352 49.3855 7.59462 49.2984 7.46839 49.1843C7.34215 49.07 7.24135 48.9309 7.17238 48.7758C7.1034 48.6209 7.06776 48.4534 7.06776 48.2839C7.06776 48.1146 7.1034 47.9471 7.17238 47.792C7.24135 47.6371 7.34215 47.4979 7.46839 47.3837C7.59462 47.2694 7.74352 47.1825 7.90557 47.1282C8.06761 47.0741 8.23926 47.054 8.40959 47.0692H10.6637C10.9316 47.0437 11.1804 46.9202 11.3613 46.7229C11.5423 46.5255 11.6426 46.2686 11.6426 46.002C11.6426 45.7354 11.5423 45.4783 11.3613 45.2811C11.1804 45.0838 10.9316 44.9603 10.6637 44.9348H8.6777C8.39325 43.4381 8.43946 41.8983 8.81316 40.4211C9.18685 38.9439 9.87917 37.5643 10.8425 36.3774C11.5376 38.5217 13.3251 41.4529 17.7937 43.784C21.9941 45.9577 27.5551 47.0692 34.3176 47.0692H38.2897C38.46 47.054 38.6317 47.0741 38.7937 47.1282C38.9557 47.1825 39.1046 47.2694 39.2309 47.3837C39.357 47.4979 39.4579 47.6371 39.5269 47.792C39.5958 47.9471 39.6314 48.1146 39.6314 48.2839C39.6314 48.4534 39.5958 48.6209 39.5269 48.7758C39.4579 48.9309 39.357 49.07 39.2309 49.1843C39.1046 49.2984 38.9557 49.3855 38.7937 49.4396C38.6317 49.4937 38.46 49.5138 38.2897 49.4986H38.3592Z" fill="white"/>
<path d="M45.3704 78.3453L44.5881 79.5514L44.6038 79.5615L45.3704 78.3453ZM53.7919 78.7529L55.224 78.721L55.1872 77.055L53.5523 77.3338L53.7919 78.7529ZM53.8899 83.181L54.2544 84.5731L55.3471 84.2842L55.322 83.1491L53.8899 83.181ZM42.8383 83.3919L43.1597 81.9892L43.151 81.9872L42.8383 83.3919ZM37.3824 80.9459L38.3092 79.8483L38.307 79.8465L37.3824 80.9459ZM35.4099 76.4476L36.8424 76.4547V76.4476H35.4099ZM36.0954 73.2987L34.8099 72.6633L34.809 72.6653L36.0954 73.2987ZM40.488 69.5312L40.9963 70.8772L41.0015 70.8751L40.488 69.5312ZM54.5614 69.1658L55.9895 69.2776L56.0837 68.0621L54.9061 67.7686L54.5614 69.1658ZM54.2115 73.6783L53.9448 75.0925L55.5157 75.3917L55.6397 73.7899L54.2115 73.6783ZM50.3925 71.8311C48.2427 71.8311 46.4355 72.0619 45.1155 72.6452C44.439 72.9441 43.8235 73.3647 43.3753 73.9588C42.9132 74.5713 42.6928 75.2853 42.6928 76.0398H45.5577C45.5577 75.8714 45.5984 75.7776 45.6586 75.6979C45.7327 75.5996 45.9006 75.4433 46.2687 75.2806C47.0377 74.9409 48.3642 74.71 50.3925 74.71V71.8311ZM42.6928 76.0398C42.6928 77.5211 43.3535 78.7429 44.5881 79.5514L46.1525 77.1393C45.7271 76.8608 45.5577 76.5454 45.5577 76.0398H42.6928ZM44.6038 79.5615C45.7743 80.3064 47.3177 80.5861 49.0495 80.5861V77.707C47.5543 77.707 46.645 77.4526 46.1368 77.1292L44.6038 79.5615ZM49.0495 80.5861C50.7495 80.5861 52.4104 80.4486 54.0315 80.1722L53.5523 77.3338C52.0956 77.5821 50.5952 77.707 49.0495 77.707V80.5861ZM52.3598 78.7849L52.4577 83.213L55.322 83.1491L55.224 78.721L52.3598 78.7849ZM53.5253 81.789C51.8875 82.222 50.0811 82.4444 48.0982 82.4444V85.3235C50.2935 85.3235 52.3482 85.0772 54.2544 84.5731L53.5253 81.789ZM48.0982 82.4444C46.0748 82.4444 44.4371 82.2848 43.1597 81.9892L42.5168 84.7948C44.0745 85.1552 45.9435 85.3235 48.0982 85.3235V82.4444ZM43.151 81.9872C41.7836 81.6798 40.7961 81.3533 40.1374 81.0301L38.8801 83.6171C39.8256 84.081 41.0576 84.4668 42.5256 84.7967L43.151 81.9872ZM40.1374 81.0301C39.4313 80.6836 38.8248 80.288 38.3092 79.8483L36.4556 82.0436C37.171 82.6535 37.9822 83.1764 38.8801 83.6171L40.1374 81.0301ZM38.307 79.8465C37.3337 79.0199 36.8349 77.9396 36.8424 76.4547L33.9774 76.4403C33.9662 78.7041 34.7825 80.6228 36.4577 82.0454L38.307 79.8465ZM36.8424 76.4476C36.8424 75.4799 37.0314 74.6506 37.3818 73.932L34.809 72.6653C34.2455 73.821 33.9774 75.0911 33.9774 76.4476H36.8424ZM37.3808 73.9339C38.0324 72.6025 39.1832 71.5685 40.9963 70.8772L39.9798 68.1854C37.6147 69.0873 35.8369 70.5649 34.8099 72.6633L37.3808 73.9339ZM41.0015 70.8751C42.9074 70.1398 45.0344 69.7618 47.3988 69.7618V66.8828C44.727 66.8828 42.2467 67.3108 39.9745 68.1874L41.0015 70.8751ZM47.3988 69.7618C49.8102 69.7618 52.0813 70.0309 54.2165 70.563L54.9061 67.7686C52.5274 67.176 50.0235 66.8828 47.3988 66.8828V69.7618ZM53.1332 69.054L52.7833 73.5665L55.6397 73.7899L55.9895 69.2776L53.1332 69.054ZM54.4784 72.2639C52.9879 71.9801 51.623 71.8311 50.3925 71.8311V74.71C51.4003 74.71 52.5814 74.8328 53.9448 75.0925L54.4784 72.2639ZM68.4555 74.5638L68.4476 76.0033L69.9034 76.0114L69.888 74.5486L68.4555 74.5638ZM67.8399 72.6942L66.8652 73.7492L66.8776 73.7604L67.8399 72.6942ZM64.2727 72.8348L65.2648 73.8733L65.2753 73.8628L64.2727 72.8348ZM63.4054 74.5358L61.9918 74.3022L61.7197 75.9659L63.3974 75.9751L63.4054 74.5358ZM73.9394 82.2111L74.8047 83.3583L75.3197 82.966L75.3679 82.3185L73.9394 82.2111ZM70.8477 83.3639L70.5398 81.958L70.5313 81.9598L70.8477 83.3639ZM60.1039 82.9702L59.6154 84.3235L59.6271 84.3276L60.1039 82.9702ZM57.6558 81.6629L56.7666 82.7915L56.7752 82.7982L56.7839 82.805L57.6558 81.6629ZM56.019 79.5964L54.7349 80.2345L54.7378 80.2402L56.019 79.5964ZM70.7918 69.3063L71.3647 67.9869L71.3512 67.9812L70.7918 69.3063ZM74.0792 72.3428L72.7909 72.9721L72.7948 72.9801L74.0792 72.3428ZM74.6388 74.8591L76.0675 74.9635L76.0713 74.9114V74.8591H74.6388ZM74.4709 77.1785L74.4638 78.618L75.8026 78.6246L75.8997 77.283L74.4709 77.1785ZM63.1256 77.1222L63.1326 75.6829L61.2638 75.6736L61.7405 77.4894L63.1256 77.1222ZM64.7484 79.1325L64.0435 80.3857L64.0493 80.3889L64.7484 79.1325ZM73.4497 78.6405V77.201H73.1635L72.8992 77.3116L73.4497 78.6405ZM74.2051 78.6405L75.6337 78.7479L75.7488 77.201H74.2051V78.6405ZM69.888 74.5486C69.877 73.5073 69.6388 72.3903 68.8024 71.6279L66.8776 73.7604C66.8607 73.7451 66.8937 73.7635 66.9346 73.8878C66.9781 74.0196 67.0195 74.2398 67.0231 74.5792L69.888 74.5486ZM68.8148 71.6394C68.063 70.9379 67.0767 70.7065 66.1054 70.7065V73.5854C66.6635 73.5854 66.8336 73.7197 66.8652 73.7492L68.8148 71.6394ZM66.1054 70.7065C65.0385 70.7065 64.0464 71.0423 63.2701 71.8066L65.2753 73.8628C65.4318 73.7088 65.6613 73.5854 66.1054 73.5854V70.7065ZM63.2807 71.7963C62.5755 72.4767 62.1504 73.3331 61.9918 74.3022L64.8188 74.7693C64.8842 74.3701 65.0373 74.0928 65.2648 73.8733L63.2807 71.7963ZM63.3974 75.9751L68.4476 76.0033L68.4635 73.1244L63.4133 73.0962L63.3974 75.9751ZM73.074 81.0639C72.7599 81.3032 71.994 81.6363 70.5398 81.958L71.1557 84.7696C72.6671 84.4353 73.9623 84 74.8047 83.3583L73.074 81.0639ZM70.5313 81.9598C69.1434 82.2756 67.8087 82.4304 66.525 82.4304V85.3093C68.0392 85.3093 69.5862 85.1267 71.164 84.7678L70.5313 81.9598ZM66.525 82.4304C65.1751 82.4304 64.0632 82.3664 63.1768 82.2465L62.7946 85.0997C63.8479 85.2422 65.0956 85.3093 66.525 85.3093V82.4304ZM63.1768 82.2465C62.3072 82.1288 61.4421 81.9184 60.5806 81.6128L59.6271 84.3276C60.6682 84.6969 61.7244 84.955 62.7946 85.0997L63.1768 82.2465ZM60.5923 81.617C59.7548 81.3118 59.0734 80.9414 58.5277 80.5207L56.7839 82.805C57.5997 83.4338 58.5503 83.9353 59.6154 84.3235L60.5923 81.617ZM58.5449 80.5342C58.0532 80.143 57.6352 79.6259 57.3003 78.9527L54.7378 80.2402C55.2421 81.2538 55.9154 82.1143 56.7666 82.7915L58.5449 80.5342ZM57.3031 78.9583C57.0017 78.346 56.8219 77.5577 56.8219 76.5459H53.957C53.957 77.8958 54.1969 79.1413 54.7349 80.2345L57.3031 78.9583ZM56.8219 76.5459C56.8219 75.5332 57.0036 74.639 57.3472 73.8437L54.7188 72.6975C54.2044 73.8889 53.957 75.1782 53.957 76.5459H56.8219ZM57.3472 73.8437C57.7082 73.0073 58.1506 72.3889 58.6504 71.9419L56.745 69.7916C55.8832 70.5628 55.2157 71.5469 54.7188 72.6975L57.3472 73.8437ZM58.6504 71.9419C60.19 70.5624 62.5393 69.7618 65.9234 69.7618V66.8828C62.1265 66.8828 58.9919 67.7785 56.745 69.7916L58.6504 71.9419ZM65.9234 69.7618C67.442 69.7618 68.8742 70.0525 70.2323 70.6315L71.3512 67.9812C69.6317 67.2481 67.8182 66.8828 65.9234 66.8828V69.7618ZM70.2188 70.6257C71.4865 71.1816 72.3058 71.9694 72.7909 72.9721L75.3676 71.7135C74.547 70.017 73.1747 68.7805 71.3647 67.9869L70.2188 70.6257ZM72.7948 72.9801C73.0624 73.5245 73.2063 74.1425 73.2063 74.8591H76.0713C76.0713 73.7386 75.8422 72.6792 75.3636 71.7054L72.7948 72.9801ZM73.2101 74.7546L73.0422 77.0741L75.8997 77.283L76.0675 74.9635L73.2101 74.7546ZM74.4781 75.7391L63.1326 75.6829L63.1185 78.5617L74.4638 78.618L74.4781 75.7391ZM61.7405 77.4894C62.0753 78.7655 62.8944 79.7331 64.0435 80.3857L65.4532 77.8793C64.8863 77.5574 64.6235 77.1848 64.5107 76.7552L61.7405 77.4894ZM64.0493 80.3889C65.2111 81.0417 66.664 81.303 68.2876 81.303V78.424C66.927 78.424 66.0203 78.1979 65.4474 77.8761L64.0493 80.3889ZM68.2876 81.303C70.0299 81.303 71.9436 80.8298 74.0002 79.9695L72.8992 77.3116C71.0575 78.082 69.5297 78.424 68.2876 78.424V81.303ZM73.4497 80.08H74.2051V77.201H73.4497V80.08ZM72.7766 78.5332L72.5108 82.1038L75.3679 82.3185L75.6337 78.7479L72.7766 78.5332Z" fill="white"/>
</svg>
