<svg width="88" height="88" viewBox="0 0 88 88" fill="none" xmlns="http://www.w3.org/2000/svg">
<path d="M43.9999 0C19.6993 0 0 19.6993 0 44C0 68.3007 19.6993 88 43.9999 88C68.3006 88 88 68.3007 88 44C87.9998 19.6993 68.3002 0 43.9999 0ZM32.2607 65.272H22.6V34.0612H32.2607V65.272ZM27.3843 29.9739C24.2292 29.9739 21.6715 27.3953 21.6715 24.215C21.6715 21.0343 24.2296 18.4559 27.3843 18.4559C30.539 18.4559 33.0967 21.0343 33.0967 24.215C33.0969 27.3955 30.5392 29.9739 27.3843 29.9739ZM68.4638 65.272H58.85V48.8889C58.85 44.3955 57.1432 41.8873 53.5902 41.8873C49.7233 41.8873 47.7032 44.4996 47.7032 48.8889V65.272H38.4375V34.0612H47.7032V38.2648C47.7032 38.2648 50.4903 33.1092 57.1083 33.1092C63.7264 33.1092 68.464 37.1502 68.464 45.5098L68.4638 65.272Z" fill="white"/>
</svg>
