<svg width="189" height="73" viewBox="0 0 189 73" fill="none" xmlns="http://www.w3.org/2000/svg">
<path d="M159.939 17.016V5.83676H127.543L122.209 43.1697L116.94 5.83676H105.256L106.562 15.8056C105.215 13.2506 100.434 5.83676 89.9069 5.83676C89.837 5.83238 78.2097 5.83676 78.2097 5.83676L78.1613 60.2524L69.6476 5.83676L54.3447 5.83238L45.5358 62.2128L45.5407 5.83676H30.8924L25.6137 37.5071L20.4714 5.83676H5.82083V67.1319H17.3585V37.5874L22.6074 67.1319H28.7401L33.9149 37.5874V67.1319H56.1557L57.5006 57.704H66.4547L67.7996 67.1319L89.637 67.1454H89.6529V67.1319H89.6801V47.238L92.3541 46.8642L97.896 67.1454H109.192L109.187 67.1319H109.219L101.947 43.3668C105.629 40.7465 109.792 34.1035 108.684 27.7455V27.7433C108.698 27.8258 115.55 67.1728 115.55 67.1728L128.982 67.1327L138.159 11.5786V67.1327H159.939V56.11H149.603V42.055H159.939V30.8641H149.603V17.016H159.939ZM58.8595 47.9866L62.0298 21.7789L65.3146 47.9866H58.8595ZM92.3911 35.885C91.5051 36.2949 90.5828 36.5 89.6801 36.5022V16.7886C89.6941 16.7886 89.7153 16.7864 89.738 16.7864C90.6376 16.7798 97.3747 17.047 97.3747 26.5352C97.3747 31.4985 95.084 34.6287 92.3911 35.885ZM183.181 56.0998V67.1184H161.933V5.828H173.375V56.0998H183.181Z" fill="white"/>
</svg>
