<svg width="110" height="110" viewBox="0 0 110 110" fill="none" xmlns="http://www.w3.org/2000/svg">
<g clip-path="url(#clip0_2_120)">
<path d="M0 30.3448V110H110V30.3448L91.0345 0H18.9655L0 30.3448Z" fill="#A98258"/>
<path d="M110 30.3448L91.0345 0H18.9655L0 30.3448H110Z" fill="#DAAE86"/>
<path d="M66.3793 110V98.6207L62.5862 102.414L55 94.8276L47.4138 102.414L43.6207 98.6207V110H66.3793Z" fill="#D8B18B"/>
<path d="M37.931 56.8965H72.069V87.2414H37.931V56.8965Z" fill="#E8D5B2"/>
<path d="M56.8966 77.7586H45.5172C45.0143 77.7586 44.5319 77.9584 44.1762 78.3141C43.8205 78.6698 43.6207 79.1522 43.6207 79.6551C43.6207 80.1581 43.8205 80.6405 44.1762 80.9962C44.5319 81.3519 45.0143 81.5517 45.5172 81.5517H56.8966C57.3996 81.5517 57.882 81.3519 58.2376 80.9962C58.5933 80.6405 58.7931 80.1581 58.7931 79.6551C58.7931 79.1522 58.5933 78.6698 58.2376 78.3141C57.882 77.9584 57.3996 77.7586 56.8966 77.7586ZM64.4828 77.7586H62.5862C62.0832 77.7586 61.6008 77.9584 61.2451 78.3141C60.8895 78.6698 60.6897 79.1522 60.6897 79.6551C60.6897 80.1581 60.8895 80.6405 61.2451 80.9962C61.6008 81.3519 62.0832 81.5517 62.5862 81.5517H64.4828C64.9858 81.5517 65.4682 81.3519 65.8238 80.9962C66.1795 80.6405 66.3793 80.1581 66.3793 79.6551C66.3793 79.1522 66.1795 78.6698 65.8238 78.3141C65.4682 77.9584 64.9858 77.7586 64.4828 77.7586ZM53.1035 66.3793H64.4828C64.9858 66.3793 65.4682 66.1795 65.8238 65.8238C66.1795 65.4681 66.3793 64.9857 66.3793 64.4827C66.3793 63.9797 66.1795 63.4973 65.8238 63.1417C65.4682 62.786 64.9858 62.5862 64.4828 62.5862H53.1035C52.6005 62.5862 52.1181 62.786 51.7624 63.1417C51.4067 63.4973 51.2069 63.9797 51.2069 64.4827C51.2069 64.9857 51.4067 65.4681 51.7624 65.8238C52.1181 66.1795 52.6005 66.3793 53.1035 66.3793ZM64.4828 70.1724H60.6897C60.1867 70.1724 59.7043 70.3722 59.3486 70.7279C58.9929 71.0835 58.7931 71.5659 58.7931 72.0689C58.7931 72.5719 58.9929 73.0543 59.3486 73.41C59.7043 73.7657 60.1867 73.9655 60.6897 73.9655H64.4828C64.9858 73.9655 65.4682 73.7657 65.8238 73.41C66.1795 73.0543 66.3793 72.5719 66.3793 72.0689C66.3793 71.5659 66.1795 71.0835 65.8238 70.7279C65.4682 70.3722 64.9858 70.1724 64.4828 70.1724ZM45.5172 73.9655H49.3104C49.8133 73.9655 50.2957 73.7657 50.6514 73.41C51.0071 73.0543 51.2069 72.5719 51.2069 72.0689C51.2069 71.5659 51.0071 71.0835 50.6514 70.7279C50.2957 70.3722 49.8133 70.1724 49.3104 70.1724H45.5172C45.0143 70.1724 44.5319 70.3722 44.1762 70.7279C43.8205 71.0835 43.6207 71.5659 43.6207 72.0689C43.6207 72.5719 43.8205 73.0543 44.1762 73.41C44.5319 73.7657 45.0143 73.9655 45.5172 73.9655ZM45.5172 66.3793H47.4138C47.9168 66.3793 48.3992 66.1795 48.7549 65.8238C49.1105 65.4681 49.3104 64.9857 49.3104 64.4827C49.3104 63.9797 49.1105 63.4973 48.7549 63.1417C48.3992 62.786 47.9168 62.5862 47.4138 62.5862H45.5172C45.0143 62.5862 44.5319 62.786 44.1762 63.1417C43.8205 63.4973 43.6207 63.9797 43.6207 64.4827C43.6207 64.9857 43.8205 65.4681 44.1762 65.8238C44.5319 66.1795 45.0143 66.3793 45.5172 66.3793ZM53.6724 70.7414C53.3201 71.0949 53.1165 71.57 53.1035 72.0689C53.1035 72.581 53.2931 73.0551 53.6724 73.3965C54.0282 73.7456 54.5019 73.9487 55 73.9655C55.5022 73.9585 55.9831 73.7621 56.3466 73.4155C56.6931 73.052 56.8896 72.5711 56.8966 72.0689C56.8896 71.5668 56.6931 71.0858 56.3466 70.7224C55.9792 70.3852 55.4987 70.1981 55 70.1981C54.5013 70.1981 54.0208 70.3852 53.6535 70.7224L53.6724 70.7414Z" fill="#D4C3A5"/>
<path d="M43.6207 0H66.3793V30.3448H43.6207V0Z" fill="#F4D5BD"/>
<path d="M43.6207 30.3448V43.6207L47.4138 39.8276L55 47.4138L62.5862 39.8276L66.3793 43.6207V30.3448H43.6207Z" fill="#D8B18B"/>
</g>
<defs>
<clipPath id="clip0_2_120">
<rect width="110" height="110" fill="white"/>
</clipPath>
</defs>
</svg>
