<svg width="98" height="112" viewBox="0 0 98 112" fill="none" xmlns="http://www.w3.org/2000/svg">
<path d="M98 56.01C98 49.4987 89.87 43.3279 77.4052 39.5013C80.2817 26.7591 79.0033 16.6214 73.3702 13.3758C72.0718 12.6144 70.5536 12.2538 68.8956 12.2538V16.7216C69.8145 16.7216 70.5536 16.9019 71.1729 17.2425C73.8895 18.8052 75.0681 24.7556 74.1492 32.4089C73.9295 34.2922 73.5699 36.2756 73.1305 38.2992C69.2152 37.3375 64.9405 36.5962 60.446 36.1154C57.7493 32.4089 54.9527 29.043 52.1362 26.0979C58.6482 20.0273 64.7607 16.7015 68.9156 16.7015V12.2338C63.4223 12.2338 56.2311 16.1606 48.96 22.9725C41.689 16.2007 34.4978 12.3139 29.0045 12.3139V16.7817C33.1394 16.7817 39.2719 20.0874 45.7839 26.1179C42.9874 29.0631 40.1908 32.4089 37.534 36.1154C33.0196 36.5962 28.7448 37.3375 24.8296 38.3192C24.3702 36.3157 24.0306 34.3723 23.7909 32.5091C22.852 24.8557 24.0106 18.9054 26.7073 17.3226C27.3066 16.962 28.0856 16.8017 29.0045 16.8017V12.3339C27.3265 12.3339 25.8084 12.6946 24.49 13.4559C18.8769 16.7015 17.6184 26.8192 20.5149 39.5213C8.09009 43.368 0 49.5187 0 56.01C0 62.5214 8.13004 68.6921 20.5948 72.5188C17.7183 85.261 18.9967 95.3986 24.6298 98.6443C25.9283 99.4056 27.4464 99.7662 29.1243 99.7662C34.6176 99.7662 41.8088 95.8394 49.0799 89.0275C56.351 95.7993 63.5422 99.6861 69.0355 99.6861C70.7134 99.6861 72.2316 99.3255 73.5499 98.5641C79.1631 95.3185 80.4215 85.2009 77.5251 72.4987C89.9099 68.6721 98 62.5013 98 56.01ZM71.9918 42.6467C71.2527 45.2312 70.3339 47.8959 69.2951 50.5605C68.4762 48.9577 67.6172 47.3549 66.6784 45.7521C65.7595 44.1494 64.7807 42.5866 63.8019 41.064C66.6384 41.4847 69.375 42.0056 71.9918 42.6467ZM62.843 63.9839C61.285 66.6886 59.6869 69.2531 58.0289 71.6372C55.0526 71.8977 52.0363 72.0379 49 72.0379C45.9837 72.0379 42.9674 71.8977 40.011 71.6573C38.353 69.2731 36.735 66.7287 35.1769 64.044C33.6588 61.4194 32.2805 58.7548 31.022 56.0701C32.2605 53.3854 33.6588 50.7008 35.157 48.0762C36.715 45.3715 38.3131 42.807 39.9711 40.4229C42.9474 40.1624 45.9637 40.0222 49 40.0222C52.0163 40.0222 55.0326 40.1624 57.989 40.4028C59.647 42.787 61.265 45.3314 62.8231 48.0161C64.3412 50.6407 65.7195 53.3053 66.978 55.99C65.7195 58.6747 64.3412 61.3593 62.843 63.9839ZM69.2951 61.3794C70.3738 64.064 71.2927 66.7487 72.0518 69.3533C69.435 69.9944 66.6784 70.5353 63.8219 70.956C64.8007 69.4134 65.7795 67.8306 66.6983 66.2078C67.6172 64.605 68.4762 62.9822 69.2951 61.3794ZM49.04 82.7566C47.1822 80.8332 45.3245 78.6895 43.4868 76.3454C45.2846 76.4256 47.1223 76.4857 48.98 76.4857C50.8577 76.4857 52.7155 76.4456 54.5332 76.3454C52.7354 78.6895 50.8777 80.8332 49.04 82.7566ZM34.1782 70.956C31.3416 70.5353 28.605 70.0144 25.9882 69.3733C26.7273 66.7888 27.6461 64.1241 28.6849 61.4595C29.5039 63.0623 30.3628 64.6651 31.3017 66.2679C32.2405 67.8707 33.1993 69.4334 34.1782 70.956ZM48.9401 29.2634C50.7978 31.1868 52.6555 33.3305 54.4933 35.6746C52.6955 35.5945 50.8577 35.5343 49 35.5343C47.1223 35.5343 45.2646 35.5744 43.4468 35.6746C45.2446 33.3305 47.1023 31.1868 48.9401 29.2634ZM34.1582 41.064C33.1794 42.6067 32.2006 44.1894 31.2817 45.8123C30.3628 47.415 29.5039 49.0178 28.6849 50.6206C27.6062 47.936 26.6873 45.2513 25.9283 42.6467C28.545 42.0257 31.3017 41.4847 34.1582 41.064ZM16.0803 66.1477C9.00897 63.1224 4.43457 59.1555 4.43457 56.01C4.43457 52.8645 9.00897 48.8776 16.0803 45.8724C17.7982 45.1311 19.6759 44.4699 21.6135 43.8488C22.7521 47.7757 24.2503 51.8628 26.108 56.0501C24.2703 60.2173 22.7921 64.2844 21.6735 68.1912C19.6959 67.5701 17.8182 66.889 16.0803 66.1477ZM26.8272 94.7775C24.1105 93.2148 22.9319 87.2645 23.8508 79.6111C24.0705 77.7278 24.4301 75.7444 24.8696 73.7209C28.7848 74.6825 33.0595 75.4238 37.554 75.9047C40.2507 79.6111 43.0473 82.977 45.8638 85.9221C39.3518 91.9927 33.2393 95.3185 29.0844 95.3185C28.1855 95.2984 27.4264 95.1181 26.8272 94.7775ZM74.2091 79.5109C75.148 87.1643 73.9894 93.1146 71.2927 94.6974C70.6934 95.058 69.9144 95.2183 68.9955 95.2183C64.8606 95.2183 58.7281 91.9125 52.2161 85.882C55.0126 82.9369 57.8092 79.5911 60.466 75.8846C64.9804 75.4038 69.2552 74.6625 73.1704 73.6808C73.6298 75.7043 73.9894 77.6477 74.2091 79.5109ZM81.8997 66.1477C80.1818 66.889 78.3041 67.5501 76.3665 68.1712C75.2279 64.2444 73.7297 60.1572 71.872 55.9699C73.7097 51.8027 75.1879 47.7356 76.3066 43.8288C78.2841 44.4499 80.1618 45.1311 81.9197 45.8724C88.991 48.8976 93.5654 52.8645 93.5654 56.01C93.5455 59.1555 88.9711 63.1424 81.8997 66.1477Z" fill="#61DAFB"/>
<path d="M48.98 65.166C54.0217 65.166 58.1088 61.0667 58.1088 56.01C58.1088 50.9533 54.0217 46.8541 48.98 46.8541C43.9383 46.8541 39.8512 50.9533 39.8512 56.01C39.8512 61.0667 43.9383 65.166 48.98 65.166Z" fill="#61DAFB"/>
</svg>
