<svg width="152" height="128" viewBox="0 0 152 128" fill="none" xmlns="http://www.w3.org/2000/svg">
<g clip-path="url(#clip0_2_91)">
<path fill-rule="evenodd" clip-rule="evenodd" d="M111.954 24.6022L114.774 28.3662C115.514 29.3597 115.329 30.7836 114.349 31.5342L111.354 33.8412C111.899 35.3092 112.248 36.8766 112.389 38.4772L115.797 38.9518C117.016 39.1174 117.866 40.2654 117.703 41.5016L117.071 46.1929C116.908 47.4291 115.776 48.3011 114.556 48.1246L110.832 47.6058C110.168 49.0739 109.319 50.4205 108.317 51.6236L110.407 54.4053C111.148 55.3987 110.952 56.8226 109.972 57.5732L106.259 60.4321C105.279 61.1827 103.875 60.984 103.134 60.0016L100.858 56.9661C99.3995 57.518 97.8643 57.8712 96.2744 58.0147L95.8062 61.4697C95.6429 62.7059 94.5107 63.5669 93.291 63.4014L88.6636 62.7611C87.4439 62.5956 86.5949 61.4476 86.7583 60.2113L87.27 56.4363C85.8329 55.763 84.4934 54.902 83.3066 53.8975L80.5628 56.0058C79.5828 56.7564 78.178 56.5687 77.4378 55.5753L74.6176 51.8113C73.8773 50.8178 74.0624 49.3939 75.0424 48.6433L78.0365 46.3364C77.4924 44.8572 77.144 43.3009 77.0024 41.7003L73.5942 41.2257C72.375 41.0601 71.5143 39.9122 71.6888 38.6759L72.3204 33.9846C72.4943 32.7484 73.6159 31.8874 74.8356 32.0529L78.5593 32.5718C79.2233 31.1147 80.0728 29.757 81.0634 28.5539L78.9841 25.7722C78.2433 24.7898 78.4289 23.3659 79.4083 22.6154L83.1215 19.7565C84.1015 19.0059 85.5062 19.1935 86.2465 20.1869L88.522 23.2224C89.9703 22.6706 91.5161 22.3173 93.0953 22.1738L93.5636 18.7189C93.7269 17.4826 94.8591 16.6106 96.0788 16.7762L100.706 17.4164C101.925 17.5819 102.785 18.7299 102.611 19.9662L102.1 23.7412C103.548 24.4146 104.876 25.2755 106.074 26.291L108.818 24.1828C109.798 23.4211 111.202 23.6088 111.954 24.6022ZM32.3386 90.842V72.6293H41.5934C43.3142 72.6293 44.6203 72.7728 45.5245 73.0819C46.4281 73.3801 47.1684 73.9315 47.713 74.7378C48.2682 75.5543 48.5514 76.5368 48.5514 77.6957C48.5514 78.7003 48.3335 79.5834 47.9087 80.3117C47.4839 81.0514 46.8964 81.6475 46.1561 82.1C45.6878 82.3871 45.0345 82.63 44.2067 82.8176C44.8712 83.0493 45.35 83.2589 45.6438 83.4905C45.8511 83.6454 46.1449 83.9657 46.5262 84.4511C46.9069 84.937 47.1684 85.3229 47.2988 85.5879L49.9991 90.8533H43.7278L40.7661 85.3009C40.3848 84.5839 40.0582 84.1092 39.7644 83.8991C39.3613 83.6233 38.9042 83.4798 38.4031 83.4798H37.9131V90.8533H32.3386V90.842ZM51.9156 122.555H41.5499L40.0582 127.5H30.7165L41.8548 97.4872H51.8721L62.9675 127.5H53.3856L51.9156 122.555ZM49.9774 116.053L46.7436 105.258L43.4993 116.053H49.9774ZM65.1232 97.4872H80.3448C83.6661 97.4872 86.1484 98.2822 87.7923 99.8824C89.4368 101.483 90.264 103.768 90.264 106.715C90.264 109.75 89.3604 112.124 87.5638 113.835C85.7671 115.546 83.0128 116.396 79.3214 116.396H74.3021V127.5H65.1232V97.4872ZM74.3021 110.314H76.5559C78.3308 110.314 79.5828 110.005 80.3014 109.375C81.0199 108.757 81.3795 107.951 81.3795 106.991C81.3795 106.053 81.0634 105.247 80.4429 104.596C79.8225 103.944 78.6463 103.613 76.926 103.613H74.3021V110.314ZM93.966 97.4872H103.145V127.5H93.966V97.4872ZM37.9131 80.0247H40.2544C40.5047 80.0247 40.9947 79.9366 41.7244 79.771C42.0945 79.6936 42.3994 79.506 42.628 79.197C42.8677 78.8879 42.9764 78.5348 42.9764 78.1375C42.9764 77.5522 42.7913 77.0889 42.4212 76.7798C42.051 76.4594 41.3648 76.3052 40.3525 76.3052H37.9131V80.0247ZM51.0666 72.6293H65.9287V76.5148H56.6411V79.4179H65.2536V83.1267H56.6411V86.714H66.2013V90.8313H51.0666V72.6293ZM67.5185 84.8155L72.7886 84.4844C72.8973 85.3562 73.137 86.0077 73.4855 86.4603C74.0624 87.1886 74.8791 87.5638 75.9354 87.5638C76.7192 87.5638 77.3396 87.3762 77.7644 87.001C78.1892 86.6258 78.4066 86.184 78.4066 85.6873C78.4066 85.2127 78.1998 84.7935 77.7973 84.4183C77.3943 84.0426 76.4472 83.7007 74.9554 83.3583C72.5272 82.8063 70.7958 82.0667 69.7506 81.1508C68.7053 80.2343 68.183 79.0647 68.183 77.6403C68.183 76.7024 68.4551 75.8193 68.9885 74.9915C69.522 74.1638 70.3275 73.5015 71.4056 73.0266C72.4837 72.552 73.9537 72.3202 75.8262 72.3202C78.124 72.3202 79.866 72.7507 81.0745 73.6225C82.2719 74.4949 82.991 75.8633 83.2196 77.7618L78.0041 78.0822C77.8625 77.2544 77.5682 76.647 77.1328 76.2831C76.6863 75.9074 76.0659 75.7198 75.2927 75.7198C74.6505 75.7198 74.1605 75.8633 73.8339 76.1396C73.5072 76.4154 73.3439 76.7578 73.3439 77.155C73.3439 77.442 73.4855 77.6957 73.7469 77.9387C74.0078 78.1703 74.6176 78.402 75.5976 78.6122C78.0259 79.1416 79.7679 79.6829 80.8131 80.2236C81.8583 80.7643 82.6315 81.4378 83.0997 82.2435C83.5786 83.0385 83.8183 83.9431 83.8183 84.937C83.8183 86.1066 83.5028 87.1773 82.86 88.1599C82.2285 89.1424 81.336 89.8928 80.1927 90.4007C79.0493 90.9087 77.6122 91.1624 75.8697 91.1624C72.821 91.1624 70.6982 90.5663 69.522 89.3741C68.3464 88.1599 67.6819 86.6479 67.5185 84.8155ZM84.6238 72.6293H101.512V77.1329H95.8497V90.842H90.2969V77.1329H84.6238V72.6293ZM65.9398 29.4038C63.947 29.2493 61.9329 29.2714 59.9406 29.4701C53.8104 30.0661 47.8546 32.3289 42.9329 36.2033C37.238 40.6738 32.9156 47.3629 31.2499 56.2266L30.7271 58.9971L28.005 59.4828C25.3377 59.9574 22.9529 60.6087 20.8625 61.4366C18.8373 62.2313 17.0295 63.2137 15.4508 64.3727C14.1876 65.2999 13.0989 66.3375 12.1735 67.4634C9.30995 70.9404 7.98155 75.3006 8.01444 79.7156C8.04677 84.1974 9.48386 88.7226 12.1407 92.4427C13.1318 93.8225 14.2751 95.0921 15.5818 96.1956C16.9102 97.3104 18.4014 98.2376 20.0781 98.9331C21.0258 99.3303 22.0381 99.662 23.0945 99.9264V108.194C20.9165 107.797 18.9131 107.201 17.0406 106.417C14.5689 105.379 12.3804 104.044 10.4533 102.41C8.62373 100.865 7.0233 99.11 5.66257 97.2002C2.03638 92.1229 0.0764 85.919 0.0329191 79.7377C-0.0105617 73.4902 1.90594 67.2758 6.04331 62.2423C7.38285 60.6087 8.96154 59.1075 10.7688 57.7829C12.8704 56.2376 15.2769 54.9351 17.9989 53.8644C19.8713 53.1248 21.8748 52.5067 23.9875 52.01C26.3829 42.3626 31.4891 34.9339 38.0547 29.7791C44.1961 24.9554 51.589 22.1407 59.1998 21.4011C63.1961 21.0148 67.2465 21.1914 71.21 21.942C71.1224 22.3063 71.0466 22.6706 71.0026 23.0458L70.992 23.1121C70.9156 23.7412 70.8833 24.3704 70.9156 25.0106C70.0772 25.3417 69.2934 25.7943 68.5855 26.3462L68.5532 26.3683C67.4968 27.1741 66.6038 28.2117 65.9398 29.4038ZM123.55 50.5971C124.16 51.16 124.747 51.745 125.325 52.3742C126.489 53.6436 127.589 55.0786 128.624 56.6791C132.108 62.1099 133.894 69.362 133.817 76.4594C133.741 83.4244 131.89 90.3567 128.101 95.456C125.629 98.7789 122.461 101.494 118.661 103.647C116.058 105.126 113.129 106.351 109.939 107.345V98.7896C111.659 98.1387 113.26 97.4098 114.73 96.5821C117.594 94.9593 119.935 92.9835 121.688 90.6104C124.41 86.9349 125.749 81.7356 125.804 76.4041C125.869 70.808 124.519 65.1895 121.895 61.1055C121.143 59.9243 120.316 58.8647 119.445 57.9154C119.107 57.5511 118.77 57.209 118.421 56.8778C118.476 56.3259 118.498 55.763 118.465 55.2C119.303 54.8689 120.087 54.4163 120.795 53.8644L120.828 53.8423C121.949 52.9703 122.885 51.8665 123.55 50.5971ZM95.9372 30.8829C100.956 31.5783 104.462 36.2695 103.777 41.3582C103.09 46.4467 98.463 50.0121 93.4437 49.3166C88.4239 48.6213 84.907 43.93 85.6038 38.8414C86.3006 33.7529 90.9174 30.1875 95.9372 30.8829Z" fill="#01B5E6"/>
</g>
<defs>
<clipPath id="clip0_2_91">
<rect width="152" height="127" fill="white" transform="translate(0 0.5)"/>
</clipPath>
</defs>
</svg>
