<svg width="146" height="110" viewBox="0 0 146 110" fill="none" xmlns="http://www.w3.org/2000/svg">
<path d="M125.684 63.1651C120.579 63.194 116.159 64.4263 112.451 66.2612C111.083 63.538 109.714 61.1586 109.486 59.3817C109.229 57.3178 108.915 56.0563 109.229 53.5914C109.543 51.126 110.968 47.6289 110.968 47.3422C110.94 47.0843 110.654 45.823 107.717 45.7944C104.78 45.7657 102.242 46.3676 101.957 47.1416C101.672 47.9155 101.101 49.6927 100.73 51.5273C100.217 54.2217 94.8557 63.767 91.8043 68.7833C90.8061 66.8342 89.9506 65.1143 89.7792 63.7381C89.5228 61.6745 89.2088 60.413 89.5228 57.9481C89.8365 55.4827 91.2624 51.9859 91.2624 51.6993C91.2339 51.4413 90.9487 50.18 88.0117 50.1514C85.074 50.1227 82.5362 50.7247 82.251 51.4986C81.9658 52.2725 81.6521 54.1071 81.0247 55.8843C80.4256 57.6615 73.296 73.599 71.4423 77.7554C70.5013 79.8765 69.6745 81.5678 69.0753 82.7143C68.4765 83.8609 69.0468 82.8003 68.9898 82.915C68.4765 83.8896 68.1913 84.4342 68.1913 84.4342V84.4632C67.792 85.1798 67.3643 85.8674 67.1643 85.8674C67.0218 85.8674 66.7366 83.9469 67.2214 81.3101C68.2766 75.7775 70.8432 67.1498 70.8149 66.8344C70.8149 66.6911 71.2995 65.1716 69.1606 64.398C67.0788 63.624 66.3376 64.9139 66.1662 64.9139C65.9951 64.9139 65.8525 65.3726 65.8525 65.3726C65.8525 65.3726 68.1625 55.6555 61.4322 55.6555C57.2115 55.6555 51.3938 60.2705 48.5135 64.4842C46.6883 65.4875 42.8099 67.6084 38.7033 69.8732C37.1348 70.7331 35.5092 71.6504 33.9693 72.4817L33.6558 72.1371C25.4997 63.3944 10.4136 57.2029 11.041 45.4504C11.2691 41.1794 12.7521 29.9142 40.0157 16.2698C62.3454 5.09065 80.2262 8.15777 83.3344 14.9799C87.7547 24.7259 73.7808 42.8419 50.5674 45.4504C41.7268 46.4536 37.078 43.0139 35.9091 41.724C34.6828 40.3768 34.5117 40.3194 34.0554 40.5774C33.3139 40.9787 33.7702 42.1826 34.0554 42.8992C34.7398 44.7051 37.5916 47.9155 42.4397 49.5208C46.6886 50.9253 57.0695 51.6993 69.6175 46.8263C83.6769 41.3513 94.6564 26.1591 91.4338 13.4607C88.1543 0.532987 66.8227 -3.70937 46.6604 3.48544C34.654 7.78513 21.6497 14.4926 12.2958 23.2927C1.17371 33.7266 -0.594413 42.8419 0.147058 46.6256C2.74249 60.1266 21.2505 68.9267 28.6652 75.4335C28.2944 75.6339 27.9522 75.8345 27.6385 76.0068C23.9312 77.8411 9.8147 85.2655 6.27845 93.1193C2.28592 102.005 6.90585 108.398 9.98581 109.258C19.5109 111.924 29.2641 107.137 34.5399 99.2538C39.787 91.371 39.1598 81.1378 36.7358 76.4655L36.65 76.2935L39.5588 74.5736C41.4413 73.4557 43.295 72.4238 44.9202 71.5349C44.0079 74.0287 43.3517 76.9811 43.0098 81.2808C42.6105 86.3261 44.6638 92.8613 47.3731 95.4411C48.5708 96.5588 49.9967 96.5877 50.8808 96.5877C54.0178 96.5877 55.4437 93.979 57.0122 90.8548C58.9514 87.0424 60.6625 82.6281 60.6625 82.6281C60.6625 82.6281 58.5236 94.5812 64.3699 94.5812C66.5087 94.5812 68.6476 91.8007 69.6172 90.3675V90.3962C69.6172 90.3962 69.6742 90.3102 69.7883 90.1095C69.908 89.9317 70.0221 89.7501 70.1305 89.5652V89.5078C70.9861 88.0173 72.8968 84.6062 75.7486 78.9593C79.4271 71.6785 82.9637 62.5631 82.9637 62.5631C82.9637 62.5631 83.3059 64.799 84.3611 68.468C84.9882 70.6468 86.357 73.0257 87.4122 75.3475C86.5567 76.5515 86.0433 77.2397 86.0433 77.2397L86.0719 77.2684C85.3877 78.1856 84.6174 79.1605 83.8192 80.1348C80.9104 83.6319 77.4312 87.6166 76.9749 88.7631C76.433 90.1101 76.5471 91.1133 77.6023 91.9162C78.3723 92.4895 79.7411 92.6039 81.1955 92.4895C83.8192 92.3173 85.6444 91.6583 86.5569 91.2567C87.9829 90.7407 89.6084 89.9668 91.1769 88.8202C94.0287 86.6993 95.7683 83.6895 95.5972 79.6765C95.5116 77.4693 94.7987 75.2908 93.9146 73.2269C94.1713 72.8543 94.4282 72.4814 94.6846 72.0803C99.1905 65.4585 102.67 58.178 102.67 58.178C102.67 58.178 103.012 60.4139 104.067 64.0829C104.609 65.9461 105.693 67.9816 106.662 69.9881C102.442 73.4565 99.7894 77.4696 98.8768 80.1067C97.1942 84.9797 98.506 87.1869 100.987 87.7028C102.099 87.9322 103.696 87.4162 104.894 86.9002C106.377 86.4129 108.173 85.5814 109.828 84.3491C112.68 82.2279 115.417 79.2755 115.275 75.2911C115.189 73.4565 114.704 71.6507 114.048 69.9308C117.642 68.4402 122.29 67.5803 128.193 68.2969C140.884 69.7875 143.394 77.7562 142.909 81.0813C142.424 84.4067 139.772 86.2409 138.888 86.8142C138.004 87.3589 137.718 87.5598 137.804 87.9608C137.918 88.5631 138.317 88.5341 139.087 88.4197C140.142 88.2475 145.761 85.6966 145.989 79.5627C146.331 71.6788 138.888 63.0794 125.684 63.1651ZM27.8096 96.33C23.6175 100.945 17.7142 102.694 15.2046 101.203C12.4954 99.6264 13.5503 92.8329 18.7124 87.9313C21.8493 84.9502 25.9274 82.1984 28.6081 80.5072C29.207 80.1345 30.1196 79.5902 31.2033 78.9306C31.3744 78.8162 31.4885 78.7586 31.4885 78.7586C31.6881 78.644 31.9162 78.5006 32.1444 78.3573C34.0551 85.3515 32.2299 91.4857 27.8096 96.33ZM58.4666 75.3762C57.0122 78.9593 53.9322 88.1606 52.0785 87.6446C50.4812 87.2147 49.5119 80.2492 51.7646 73.3697C52.9053 69.901 55.3293 65.7736 56.7552 64.1681C59.0655 61.5883 61.5748 60.7283 62.2025 61.7889C62.944 63.1651 59.3792 73.1404 58.4666 75.3762ZM83.7622 87.53C83.1348 87.8456 82.5644 88.0746 82.3077 87.9029C82.1081 87.7883 82.5641 87.3583 82.5641 87.3583C82.5641 87.3583 85.7296 83.9472 86.9844 82.3707C87.6974 81.4537 88.5529 80.3931 89.4655 79.1889V79.5329C89.4658 83.6603 85.5303 86.4121 83.7622 87.53ZM103.268 83.0583C102.812 82.7143 102.869 81.6537 104.409 78.3287C105.008 77.0101 106.377 74.8029 108.744 72.7104C109.029 73.5703 109.2 74.4013 109.172 75.1756C109.143 80.3352 105.493 82.2557 103.268 83.0583Z" fill="#CF649A"/>
</svg>
